<?xml version="1.0" encoding="UTF-8"?>
<svg id="_Слой_1" data-name="Слой 1" xmlns="http://www.w3.org/2000/svg" viewBox="0 0 691.97 691.98">
  <defs>
    <style>
      .cls-1 {
        fill: #1c2849;
      }
    </style>
  </defs>
  <path class="cls-1" d="M27.68,664.3C-25.11,611.51.2,494.71,81.53,368.75c.83-1.28,2.81-.19,2.14,1.19-34.76,71.2-40.62,133.29-9.07,164.84,54.95,54.95,202.52-3.5,329.6-130.58,127.06-127.06,185.53-274.64,130.58-329.6-31.55-31.55-93.67-25.69-164.9,9.09-1.37.67-2.47-1.31-1.19-2.14C494.67.2,611.49-25.12,664.29,27.69c74.77,74.77-7.14,277.9-182.93,453.68-175.78,175.78-378.91,257.69-453.68,182.93Z"/>
  <path class="cls-1" d="M311.16,121.97c0,.46-.15.84-.38,1.15-.31.23-1,.77-1.07.84-54.78,42.27-59.61,123.29-10.66,172.31l4.14,4.14,1.3,1.23c.08.23.15.46.15.77,0,1.15-1,2.15-2.15,2.15-.38,0-.77-.08-1.07-.31l-5.22-5.22c-48.72-48.72-129.27-44.27-171.62,9.9-.38.31-.84.54-1.38.54-1.15,0-2.07-.84-2.07-1.99,0-.23.08-.46.15-.69.15-.31.38-.61.69-.92,5.14-6.75,10.43-13.35,15.8-19.95,37.13-45.65,33.14-112.17-8.52-153.82l-14.5-14.5c-.23-.31-.31-.69-.31-1.07,0-1.15.92-2.15,2.15-2.15.23,0,.54.08.77.15l1.23,1.23,13.66,13.73c41.97,41.89,108.56,44.8,154.67,7.44,6.75-5.52,13.66-10.97,20.48-16.11.38-.31,1.46-1,1.69-1,1.15,0,2.07,1,2.07,2.15Z"/>
</svg>