<svg width="849" height="514" viewBox="0 0 849 514" fill="none" xmlns="http://www.w3.org/2000/svg">
<g clip-path="url(#clip0_1913_49892)">
<rect width="848.192" height="513.116" fill="#132C5E"/>
<path d="M962.645 634.685C991.691 641.869 1021.51 646.639 1051.81 645.276C1048.75 642.476 1044.91 642.832 1041.19 642.713C994.342 641.306 949.7 630.167 905.975 613.756C881.314 604.513 858.533 591.908 835.96 578.829C817.031 567.838 801.819 552.908 793.465 532.037C784.119 508.723 788.8 486.89 803.108 467.694C821.045 443.624 844.921 427.686 874.56 420.088C896.2 414.533 917.973 412.43 940.087 412.4C963.43 412.356 986.788 412.771 1010.1 412.252C1024.34 411.911 1038.69 411.023 1051.8 404.224C1008.19 413.748 963.919 408.223 919.987 409.986C901.073 410.726 882.054 413.467 864.502 420.043C832.554 432.026 805.048 450.452 791.436 483.869C780.298 511.256 787.452 535.163 805.641 557.159C822.422 577.466 845.988 587.731 868.131 599.788C897.829 615.963 930 626.627 962.63 634.7L962.645 634.685Z" fill="#1A3B7E"/>
<path d="M645.334 357.52C663.034 347.211 681.771 345.463 700.996 352.618C721.348 360.201 732.457 381.457 726.917 402.401C724.532 411.407 721.185 420.101 715.053 427.537C707.721 436.424 701.13 445.889 694.065 454.969C672.01 483.275 670.929 513.61 685.355 545.367C693.724 563.793 707.173 578.561 720.666 593.21C731.405 604.867 743.551 615.162 753.46 627.693C766.109 643.675 768.701 660.561 760.184 679.15C758.11 683.668 756.303 688.304 754.022 692.747C752.364 695.962 750.186 699.368 752.823 703.19C753.534 695.488 758.259 689.326 761.488 682.823C774.418 656.917 766.257 635.928 747.787 617.028C729.776 598.602 710.402 581.331 696.197 559.602C674.913 527.045 669.359 488.681 697.827 453.814C709.187 439.905 722.192 426.693 727.702 408.311C737.359 376.006 720.459 350.44 688.14 346.515C647.778 341.642 619.325 368.022 606.557 401.601C591.271 441.801 598.499 480.668 608.542 520.113C617.592 555.602 632.285 588.974 645.423 622.938C655.88 650 655.939 675.388 635.395 698.183C634.092 699.635 633.262 701.205 633.233 703.175C650.459 685.771 659.642 666.012 652.977 640.861C646.075 614.866 634.536 590.648 625.605 565.467C611.223 524.897 597.225 483.867 600.588 440.113C603.165 406.682 613.741 375.902 645.319 357.506L645.334 357.52Z" fill="#1A3B7E"/>
<path d="M746.838 239.56C732.841 231.902 717.836 226.777 702.062 225.044C686.747 223.326 671.431 222.778 655.79 224.348C639.275 226.037 623.041 245.855 624.019 262.282C624.522 270.547 631.306 272.517 637.972 273.287C643.496 273.909 649.169 273.406 656.205 273.406C682.97 272.191 711.156 271.065 739.343 269.555C746.867 269.14 754.066 265.718 755.976 258.194C757.932 250.477 754.258 243.633 746.823 239.56L746.838 239.56Z" fill="#1A3B7E"/>
<path d="M260.051 190.781C274.611 187.404 289.6 195.076 295.762 209.592C304.738 230.714 309.389 253.036 310.781 275.743C312.914 310.27 309.774 344.708 305.567 378.998C304.471 388.122 300.842 395.973 291.185 398.95C281.528 401.957 276.492 397.809 277.706 387.885C278.566 380.79 279.928 373.754 281.765 366.822C287.719 344.16 290.563 321.009 291.778 297.694C292.903 276.143 289.482 254.873 285.497 233.765C283.616 223.708 275.796 218.257 265.946 218.702C256.141 219.175 249.164 225.989 247.95 236.787C246.572 249.288 249.535 261.582 250.231 273.965C252.097 307.604 253.534 340.96 241.714 373.606C234.841 392.566 230.635 412.384 230.709 432.973C230.827 470.344 250.053 494.784 282.032 510.84C297.154 518.439 313.595 522.112 329.829 526.511C376.975 539.25 418.388 561.646 448.115 601.579C466.897 626.789 479.457 655.228 486.522 685.963C487.929 692.022 488.566 698.317 493.099 703.16C486.404 670.218 475.813 638.92 457.165 610.481C432.385 572.695 398.081 548.122 356.149 532.377C335.487 524.615 313.699 521.105 293.155 512.988C270.153 503.864 251.312 490.222 240.233 467.693C232.16 451.251 232.22 433.536 234.204 415.776C236.722 393.173 246.365 372.347 250.794 350.277C255.874 324.86 254.822 299.072 252.453 273.358C251.356 261.331 250.438 249.259 250.364 237.187C250.305 228.092 257 221.545 265.102 221.057C274.729 220.479 282.076 225.278 283.439 234.402C286.016 251.836 289.245 269.255 289.289 286.911C289.349 316.15 284.875 344.856 277.766 373.192C276.862 376.776 276.818 380.568 275.825 384.123C273.915 390.966 272.7 398.417 280.032 401.912C288.03 405.748 300.561 399.439 304.516 391.884C308.071 385.071 309.211 377.591 309.715 370.362C311.833 339.42 315.595 308.492 313.58 277.431C312.01 253.021 307.345 228.996 297.495 206.57C292.237 194.587 279.484 185.448 262.302 187.404C248.824 188.929 233.434 201.771 229.672 214.747C225.94 227.604 228.087 239.675 232.797 251.955C238.841 267.7 241.699 284.363 240.573 301.16C238.515 332.177 226.191 359.935 210.876 386.463C197.753 409.185 181.327 430.055 172.454 455.147C155.302 503.582 190.169 546.952 237.122 550.003C277.425 552.625 317.061 557.839 354.209 575.554C388.232 591.818 418.151 612.895 442.65 641.927C455.018 656.621 464.201 672.87 472.392 689.889C474.406 694.081 476.258 698.391 476.272 703.19C479.635 698.48 476.895 694.14 475.117 690.022C454.025 641.009 417.633 606.423 371.509 581.375C339.412 563.986 305.153 553.173 268.627 550.092C257.474 549.159 246.291 548.641 235.182 547.293C202.226 543.353 178.29 523.06 171.818 492.651C168.381 476.476 172.336 461.161 178.749 446.348C186.081 429.374 196.553 414.251 206.373 398.757C219.467 378.124 230.22 356.395 237.404 333.11C245.95 305.485 244.765 277.817 235.123 250.592C232.072 242.001 229.539 233.469 230.546 224.212C232.383 207.637 243.832 194.558 260.051 190.781Z" fill="#1A3B7E"/>
<path d="M208.048 154.624C210.521 153.203 213.306 152.625 216.135 152.684C220.297 152.773 224.548 153.232 226.118 157.898C227.555 162.179 224.755 164.978 221.704 167.333C211.395 175.332 200.642 182.649 193.132 193.862C181.416 211.31 178.824 229.1 187.622 248.592C199.827 275.624 200.168 302.553 186.793 329.674C173.447 356.765 158.858 383.205 145.986 410.533C133.278 437.446 122.762 465.071 124.465 495.614C126.939 539.857 158.488 592.588 216.194 597.343C231.421 598.602 246.617 598.794 261.844 599.18C309.76 600.394 353.795 613.518 392.483 642.535C412.272 657.347 427.394 676.084 437.703 698.569C438.488 700.302 439.51 701.827 440.784 703.205C440.429 697.147 437.926 691.992 434.845 686.823C407.887 641.646 366.4 617.621 316.973 604.097C291.067 597.017 264.939 597.017 238.589 596.543C222.178 596.262 205.737 594.662 190.199 588.856C167.552 580.398 151.615 564.09 140.625 543.145C131.338 525.445 125.709 506.708 126.687 486.119C127.679 464.952 133.174 444.912 141.839 426.1C156.977 393.262 173.581 361.105 189.859 328.8C203.782 301.16 201.664 273.551 189.548 246.341C181.846 229.1 183.949 213.636 193.339 197.979C200.79 185.552 211.973 177.331 223.363 169.333C228.014 166.074 231.08 162.46 229.362 157.068C227.525 151.277 222.341 149.648 216.638 150.092C202.182 151.218 192.48 160.949 183.356 170.325C165.419 188.84 159.45 212.747 154.414 237.365C144.861 283.949 127.427 326.83 90.4869 359.313C67.9138 379.161 42.2748 393.943 14.8287 405.808C6.06015 409.585 -2.6492 413.303 -10.692 418.65C-32.0801 432.855 -31.6061 452.11 -19.4753 471.796C-8.89972 489.022 8.26708 500.028 21.5532 514.721C38.3201 533.251 52.8356 553.084 60.3451 577.391C69.5136 607.119 65.3367 635.173 52.4949 663.079C45.9926 677.224 36.4242 689.326 29.6997 703.175C43.1487 690.037 50.8656 673.329 58.0048 656.458C76.3566 613.147 68.4619 572.947 41.8453 535.665C29.6848 518.661 14.9028 503.968 -0.723603 489.97C-12.3064 479.602 -22.4228 467.53 -24.7334 451.014C-25.9628 442.112 -23.8891 434.38 -17.5645 427.878C-10.7067 420.857 -2.56032 415.806 6.44521 412.073C34.7356 400.327 61.8114 386.374 85.525 366.719C118.481 339.405 139.41 304.552 150.4 263.256C156.769 239.261 159.569 214.258 171.033 191.684C179.402 175.184 192.406 163.63 208.048 154.595L208.048 154.624Z" fill="#1A3B7E"/>
<path d="M-94.9412 297.269C-102.851 296.276 -110.286 291.462 -117.929 288.382C-106.554 299.357 -91.8456 300.661 -77.345 301.875C-28.1108 306.023 8.82967 285.152 35.6241 244.923C43.578 232.969 48.8362 219.535 52.4206 205.567C55.2052 194.68 59.3672 184.267 63.2775 173.766C71.8979 150.688 88.6352 135.447 109.653 123.464C131.53 111.022 154.296 100.09 175.225 85.8706C188.214 77.0574 198.464 65.2226 211.158 56.1428C234.679 39.3014 260.407 42.412 279.01 64.8671C297.036 86.7149 313.922 109.511 332.392 130.959C347.84 148.881 364.089 166.182 385.758 176.965C412.997 190.533 441.406 193.495 471.044 186.489C501.171 179.364 524.633 160.909 548.154 142.349C582.325 115.406 603.891 79.2496 622.864 41.064C629.5 27.7035 636.669 14.58 643.956 1.56016C646.4 -2.79459 649.407 -6.80863 652.829 -10.4376C658.531 -16.4661 663.093 -15.6515 665.907 -7.71217C669.358 2.01937 670.425 12.3582 671.536 22.5193C673.95 44.8263 676.35 67.0296 684.822 88.1664C688.303 96.8315 685.548 100.742 676.201 102.697C662.841 105.482 649.289 106.844 636.239 111.629C602.646 123.938 583.613 149.074 572.579 181.453C569.009 191.866 564.462 201.671 558.7 210.899C544.673 233.355 522.648 240.257 497.883 240.983C482.953 241.427 467.993 241.22 453.063 240.998C445.464 240.909 438.296 242.123 431.201 244.923C417.574 250.329 411.131 259.231 410.316 273.836C409.516 288.115 413.323 301.549 416.893 315.102C420.981 330.744 425.943 346.267 427.053 362.516C429.068 391.651 419.707 417.143 400.748 439.035C386.869 455.062 371.717 469.874 353.884 481.59C337.783 492.181 321.89 490.166 308.53 476.154C299.836 467.06 298.828 455.417 305.375 444.486C310.367 436.117 316.943 428.978 323.445 421.927C338.361 405.708 345.234 385.801 350.284 365.182C364.267 307.889 354.343 253.44 329.711 200.916C318.558 177.143 305.805 154.643 286.179 136.395C253.964 106.4 212.476 107.007 177.387 130.618C149.363 149.474 133.781 177.113 123.147 207.922C112.808 237.946 103.876 268.563 88.6648 296.573C69.9428 331.1 42.4967 355.717 3.58632 365.715C-14.6173 370.381 -32.0062 376.425 -47.5585 387.578C-66.4286 401.131 -75.212 419.454 -77.4485 442.027C-80.2331 470.096 -65.4659 489.959 -47.7362 508.667C-34.4501 522.679 -18.8978 534.336 -5.92276 548.674C3.73449 559.309 12.7696 570.27 18.2055 583.883C30.4844 614.558 25.2856 643.027 7.98549 670.119C2.96432 677.984 -2.29383 685.686 -8.574 692.677C-11.1661 695.581 -14.3803 698.528 -13.2694 703.238C-4.24904 689.996 6.68202 678.176 14.4286 663.868C33.9208 627.815 31.4176 591.659 6.59317 559.487C-8.72215 539.624 -29.1179 524.93 -46.0329 506.771C-57.0084 494.995 -68.0135 483.19 -72.62 466.971C-80.2777 440.161 -70.4278 405.678 -46.2107 389.43C-29.0439 377.906 -10.2182 372.233 9.15554 366.767C35.8907 359.213 57.2344 343.408 74.7566 321.886C97.4186 294.084 107.816 260.579 119.073 227.593C128.123 201.109 136.951 174.58 155.555 153.132C174.721 131.048 199.086 116.102 228.665 115.258C252.645 114.591 273.293 125.493 289.971 143.504C318.35 174.106 333.429 211.447 345.396 250.448C351.603 270.711 355.335 291.729 354.372 312.658C352.788 346.948 348.996 381.357 328.881 410.966C322.29 420.668 314.144 429.274 306.649 438.354C290.46 457.95 299.717 476.436 318.232 486.789C329.459 493.07 340.938 493.203 351.603 486.078C380.13 467.06 405.369 444.16 420.625 413.158C431.216 391.666 432.771 367.878 426.654 344.09C422.269 327.026 418.226 309.859 413.93 292.766C411.857 284.456 411.916 275.969 413.293 267.763C415.663 253.751 429.927 243.782 446.635 243.634C464.068 243.442 481.516 243.99 498.935 243.412C510.34 243.027 521.819 241.723 532.439 236.939C555.886 226.378 567.172 205.937 574.608 183.008C588.797 139.209 618.243 113.851 663.819 107.185C666.559 106.8 669.299 106.252 672.01 105.704C691.532 101.823 692.154 100.179 684.881 81.1899C678.068 63.4006 676.512 44.4856 674.291 25.7483C673.061 15.3354 671.388 4.95215 669.388 -5.35706C668.396 -10.4524 666.974 -16.318 660.842 -17.6215C654.487 -18.9694 651.673 -13.3408 648.533 -9.3119C640.668 0.745506 635.765 12.5359 629.485 23.5265C614.214 50.292 602.558 79.1163 582.888 103.334C556.656 135.654 525.581 162.301 487.352 178.653C450.767 194.295 413.604 190.992 379.345 170.951C361.423 160.494 346.966 144.971 333.814 128.678C315.166 105.526 297.288 81.664 277.603 59.4014C260.718 40.3087 233.538 36.1168 211.602 53.0915C190.821 69.1774 171.877 87.7222 148.163 99.8681C134.418 106.919 121.088 114.843 107.357 121.923C80.0592 136.024 64.27 158.835 55.3681 187.659C50.5543 203.286 47.0143 219.387 38.9419 233.977C21.8492 264.83 -1.71625 286.989 -36.8348 296.365C-56.4604 301.609 -75.6712 299.683 -94.956 297.284L-94.9412 297.269Z" fill="#1A3B7E"/>
<path d="M827.947 403.028C846.714 393.104 866.872 389.89 887.861 389.179C930.874 387.698 974.02 387.298 1016.52 379.596C1028.54 377.433 1040.07 372.427 1051.81 368.724C1043.38 366.531 1036.11 371.345 1028.75 373.537C1010.68 378.944 992.105 381.181 973.665 382.662C942.382 385.15 910.922 385.298 879.596 387.091C828.466 389.994 790.577 414.3 771.159 462.41C757.488 496.345 761.354 530.264 779.291 562.273C786.771 575.634 795.347 588.209 806.529 598.844C809.462 601.629 812.306 604.547 814.439 608.013C817.061 612.234 818.631 616.678 814.735 620.87C811.003 624.884 806.278 624.558 801.819 622.232C794.058 618.174 787.052 612.827 780.505 607.154C760.08 589.483 738.706 572.745 723.998 549.342C707.617 523.243 709.127 496.893 721.495 470.142C728.294 455.434 736.944 441.688 744.202 427.217C755.147 405.413 757.177 382.825 749.045 359.481C741.669 338.285 725.465 325.265 705.81 318.481C670.735 306.38 638.076 313.475 608.304 335.93C579.436 357.718 564.447 387.565 558.744 421.884C554.73 446.058 558.833 470.409 566.609 493.708C576.163 522.369 587.301 550.453 597.684 578.803C603.757 595.393 608.526 612.605 611.281 630.187C615.117 654.523 594.292 687.746 570.549 694.012C556.448 697.73 543.118 694.678 532.898 683.51C524.603 674.445 518.975 663.854 515.968 651.738C505.466 609.642 488.388 571.101 455.373 541.314C447.493 534.219 438.606 528.428 430.578 521.51C424.802 516.563 420.017 510.846 416.24 504.417C411.175 495.826 413.337 487.102 416.951 478.437C423.158 463.625 433.644 451.479 441.998 438C454.025 418.552 461.061 397.474 463.357 374.856C464.63 362.399 462.616 350.016 459.002 338.018C455.699 326.998 451.241 316.348 449.789 304.78C448.219 292.338 453.551 282.902 465.075 277.97C478.701 272.178 493.306 273.526 507.436 272.445C540.659 269.927 566.668 255.233 587.005 229.446C595.566 218.574 601.52 206.324 606.704 193.571C619.931 161.014 643.941 142.114 679.015 138.262C693.16 136.707 706.935 139.121 719.333 146.779C731.775 154.482 737.462 175.115 730.96 188.416C728.679 193.067 725.243 195.644 720.088 195.985C716.015 196.252 711.897 196.296 708.031 195.037C693.575 190.238 678.645 190.401 663.67 190.49C641.867 190.608 624.567 199.57 611.503 216.707C603.372 227.372 594.84 237.696 586.072 247.798C574.518 261.099 559.277 268.638 543.073 274.785C519.863 283.584 499.734 296.618 486.552 318.451C477.472 333.471 474.125 350.342 472.569 367.391C470.614 389.046 468.881 410.76 468.156 432.519C467.059 466.039 474.214 498.018 485.826 529.198C496.268 557.282 509.421 584.017 524.544 609.879C530.35 619.789 535.267 630.246 540.748 640.377C542.688 643.977 544.94 647.28 547.813 650.168C556.878 659.322 568.046 661.485 577.362 655.871C587.301 649.857 591.463 638.644 587.849 626.572C585.613 619.092 582.295 612.057 578.088 605.421C559.736 576.478 542.362 546.972 529.091 515.304C517.36 487.235 509.288 458.352 510.473 427.409C511.969 388.972 526.425 358.77 561.069 338.759C597.936 317.474 637.291 305.98 679.385 301.743C700.877 299.581 722.31 301.181 743.742 300.055C762.227 299.062 777.661 292.293 785.941 274.252C790.488 264.343 789.659 254.167 787.244 244.05C782.505 224.098 775.602 204.665 773.188 184.135C767.811 138.055 780.594 98.9511 815.357 67.1051C839.011 45.4498 866.161 27.9715 888.201 4.39069C897.755 -5.82965 905.486 -17.5904 915.988 -27.0553C932.903 -42.2674 952.306 -47.6442 974.613 -45.0372C995.616 -42.5636 1014.97 -35.0539 1034.24 -26.9813C1039.83 -24.641 1045.19 -20.701 1051.81 -23.7226C1035.24 -27.87 1020.16 -36.0907 1003.95 -41.3194C987.158 -46.7406 969.962 -49.5549 952.617 -47.7034C932.592 -45.5705 916.329 -34.4021 904.538 -18.8643C883.595 8.73066 856.889 29.7342 830.021 50.7822C798.516 75.4443 774.862 105.35 770.137 146.528C767.93 165.694 770.181 184.832 773.899 203.895C776.639 217.922 781.735 231.193 785.067 245.028C792.828 276.978 771.929 297.315 743.965 297.418C708.239 297.581 672.468 297.285 637.572 305.506C613.592 311.134 590.041 318.807 568.609 331.59C558.803 337.441 549.116 343.499 540.126 350.594C521.33 365.406 513.894 386.172 509.969 408.657C504.415 440.399 510.013 470.883 520.811 500.773C534.808 539.551 555.767 574.656 577.614 609.302C581.48 615.434 584.265 622.084 586.131 628.883C589.227 640.17 582.902 652.094 572.978 655.693C563.128 659.248 549.916 653.042 544.095 642.199C531.668 619.137 518.604 596.385 506.947 572.953C499.379 557.741 493.498 541.67 487.396 525.776C475.161 493.886 468.807 460.84 470.807 426.609C472.244 402.199 473.503 377.685 476.939 353.526C481.945 318.466 502.845 294.93 534.956 280.947C542.303 277.733 549.531 274.178 557.041 271.467C574.489 265.187 585.924 251.841 597.566 238.481C606.29 228.468 612.718 216.5 623.071 207.909C634.861 198.103 648.222 192.593 663.892 192.919C677.845 193.215 691.738 192.697 705.424 196.8C733.419 205.213 738.81 187.794 735.226 166.509C732.219 148.66 719.125 140.455 700.314 136.929C685.34 134.115 670.943 135.241 656.605 140.588C630.581 150.305 613.251 168.538 603.461 194.089C588.012 234.408 560.536 260.892 517.419 269.112C507.762 270.964 497.69 271.201 487.796 271.334C478.627 271.423 470.007 272.919 461.624 276.681C451.063 281.421 444.812 292.738 446.841 303.921C448.5 313.075 450.678 322.08 453.936 330.805C467.844 367.761 459.698 401.873 441.006 434.904C433.674 447.85 424.298 459.344 417.1 472.497C404.554 495.352 411.545 508.668 429.867 523.791C448.071 538.796 466.897 553.03 480.064 573.205C492.091 591.69 501.438 611.42 508.044 632.453C513.094 648.583 515.82 665.336 526.247 679.674C542.229 701.699 570.06 704.158 591.537 684.325C617.058 660.729 616.91 633.149 607.682 602.384C598.128 570.524 584.902 540.099 574.267 508.713C566.787 486.687 560.699 464.543 560.24 440.977C559.603 409.738 570.045 382.277 588.871 358.311C608.719 333.026 634.595 318.096 667.758 315.874C698.922 313.756 724.132 323.961 741.417 349.453C753.829 367.761 753.903 388.987 748.067 410.257C742.483 430.594 729.893 447.405 720.651 465.861C703.129 500.966 705.558 534.604 731.345 564.362C750.437 586.387 772.344 605.865 796.724 622.203C799.997 624.41 803.137 626.721 807.7 626.691C812.632 626.646 816.276 624.913 818.675 620.973C821.089 616.989 820.734 612.827 818.186 608.709C811.758 598.267 801.479 591.29 794.369 581.366C776.995 557.148 764.583 531.123 766.093 500.685C768.285 456.737 788.681 423.751 827.962 402.984L827.947 403.028Z" fill="#1A3B7E"/>
<path d="M342.923 -88.1552C332.052 -91.2362 320.469 -91.7842 311.123 -93.1617C293.704 -91.6509 278.344 -90.3474 263.77 -84.6151C253.505 -80.6011 242.767 -64.8854 242.648 -53.9097C242.589 -49.1105 244.455 -47.2442 249.373 -45.8223C259.533 -42.9043 270.227 -45.8223 280.329 -40.9195C300.058 -31.3213 316.307 -18.2718 327.697 0.569179C328.675 2.15407 329.504 3.85746 330.674 5.29424C339.917 16.8773 351.085 18.2696 360.46 6.64214C374.25 -10.4066 381.967 -30.4177 378.235 -52.7395C374.946 -72.3063 360.86 -83.0302 342.923 -88.1256L342.923 -88.1552Z" fill="#1A3B7E"/>
<path d="M338.509 -191.575C286.905 -182.865 244.987 -157.3 211.705 -117.203C197.575 -100.155 183.963 -82.7209 173.921 -62.8579C167.848 -50.8009 164.915 -38.2847 169.759 -24.9982C176.883 -5.37222 193.191 2.86332 215.601 -1.83211C225.94 -3.99468 236.189 -6.335 246.943 -5.63883C272.715 -3.9947 288.712 11.632 301.376 31.9838C308.352 43.1818 316.424 53.4317 327.089 61.1488C338.76 69.5769 352.254 69.414 362.933 60.9859C392.246 37.8346 416.789 10.4619 423.454 -27.9755C427.009 -48.5051 419.144 -67.3609 408.227 -84.4688C395.104 -104.998 376.219 -117.737 352.417 -123.647C338.405 -127.142 324.482 -129.69 309.996 -128.935C304.916 -128.668 299.376 -129.127 297.613 -134.993C295.851 -140.858 300.457 -144.161 304.56 -146.931C328.57 -163.091 372.116 -164.424 394.956 -132.504C410.02 -111.471 422.461 -88.8087 435.437 -66.5165C448.219 -44.5798 444.516 -22.2136 433.6 -0.439801C425.054 16.6237 413.293 31.6136 402.806 47.418C396.6 56.8237 391.327 66.6441 386.365 76.7015C375.627 98.4753 359.023 102.652 338.997 89.3955C325.208 80.2713 314.765 68.0365 304.916 55.15C298.295 46.4849 292.044 37.494 284.564 29.5843C261.369 5.14436 242.632 2.80405 215.364 17.1273C201.174 24.5778 189.31 35.2573 177.209 45.5073C156.902 62.719 134.344 76.0943 110.556 88.0625C64.7733 111.11 30.4545 145.385 11.377 193.88C3.86745 213.002 -4.47153 231.799 -20.1719 246.152C-44.1077 268.029 -80.1742 273.539 -107.383 252.788C-110.316 250.551 -113.086 246.418 -117.929 249.188C-107.591 253.839 -99.6961 262.46 -88.0541 265.452C-71.7612 269.644 -56.0607 269.466 -40.9972 262.549C-18.3353 252.121 -3.27184 234.613 6.05955 211.24C19.4641 177.661 36.2163 146.037 64.3734 121.849C81.1847 107.407 99.3289 94.8464 119.473 85.9739C144.831 74.8204 165.789 57.7717 186.911 40.6045C199.353 30.473 211.498 19.9713 227.258 14.7278C248.527 7.60317 270.004 14.1057 283.705 32.0875C294.207 45.8924 304.59 59.8602 316.128 72.7615C325.978 83.7817 337.116 93.2466 351.913 98.2828C368.369 103.911 382.129 92.4468 387.891 79.3529C396.452 59.8602 408.805 42.9004 420.699 25.6147C432.622 8.34376 443.124 -9.60849 445.716 -30.6713C447.923 -48.6976 440.443 -64.4428 430.919 -79.403C423.632 -90.8528 416.685 -102.554 410.034 -114.434C388.039 -153.7 360.074 -170.749 313.032 -154.397C309.004 -152.989 305.034 -150.812 301.672 -148.175C297.376 -144.828 292.266 -140.695 294.251 -134.548C296.236 -128.416 301.583 -125.78 308.352 -126.328C323.712 -127.587 338.583 -124.876 353.365 -120.818C387.358 -111.471 407.931 -89.3567 418.492 -56.148C425.616 -33.7077 420.018 -13.6374 409.161 5.30725C397.726 25.3184 382.722 42.7967 364.577 57.2385C349.588 69.177 331.592 65.2962 318.735 50.8989C305.893 36.5311 298.073 18.4456 282.817 5.94422C268.686 -5.65364 252.764 -8.85306 235.227 -7.77178C224.992 -7.14967 215.349 -3.00228 205.011 -3.04671C180.171 -3.16521 164.101 -24.7464 171.151 -48.6976C177.105 -69.0494 190.066 -85.3575 202.448 -101.903C214.372 -117.855 227.524 -132.845 242.973 -145.42C260.495 -159.684 279.839 -171.001 301.242 -178.985C318.542 -185.428 336.005 -189.694 354.535 -190.064C385.565 -190.686 406.628 -174.348 422.18 -149.834C430.815 -136.237 440.709 -123.484 449.019 -109.694C464.097 -84.6021 479.072 -59.3475 476.258 -28.2569C474.806 -12.171 470.274 2.87807 463.594 17.7642C449.434 49.2991 427.29 75.8424 410.449 105.585C404.139 116.724 399.118 129.003 399.503 142.66C399.948 158.449 410.805 170.077 426.653 170.714C442.087 171.336 455.506 165.693 469.015 158.775C492.491 146.763 513.331 131.462 531.476 112.532C554.567 88.4475 573.126 60.897 588.56 31.495C602.972 4.04823 618.687 -22.5691 635.765 -48.3125C642.504 -58.4588 653.05 -65.8204 666.781 -62.7246C678.645 -60.0733 687.295 -53.4523 691.798 -41.4397C698.967 -22.3025 701.559 -2.49872 702.433 17.705C703.632 45.2258 708.357 71.9024 722.962 95.8832C726.191 101.216 730.131 106.148 735.892 108.947C742.661 112.236 748.838 112.354 754.051 105.467C756.688 101.971 759.547 98.6086 760.954 94.476C773.025 59.0603 797.672 33.465 827.606 13.2909C853.112 -3.92071 873.064 -25.7834 890.616 -50.3714C912.492 -81.0621 942.027 -89.2087 977.397 -80.4251C1002.64 -74.1596 1026.96 -64.8428 1051.81 -57.259C1047.32 -63.5245 1039.8 -63.4654 1033.53 -65.4798C1011.63 -72.5007 990.195 -81.0324 967.296 -84.7799C936.058 -89.9049 910.774 -80.1881 891.489 -55.3483C882.706 -44.0467 873.567 -32.9969 865.006 -21.5323C856.445 -10.0529 844.566 -2.48392 833.279 5.76641C816.157 18.2678 799.346 31.0506 785.704 47.5365C776.328 58.8677 767.486 70.4211 762.627 84.5519C760.894 89.5584 758.717 94.4167 755.829 98.8603C748.305 110.429 738.899 111.599 730.175 100.875C721.51 90.2101 715.378 77.8124 711.749 64.4815C707.395 48.5289 705.602 32.1171 704.773 15.6165C703.795 -4.03918 701.366 -23.4134 694.153 -41.9433C688.065 -57.5849 675.075 -66.2203 658.56 -65.1835C646.844 -64.4577 638.92 -57.0961 633.01 -48.2977C616.377 -23.4578 601.491 2.4041 587.286 28.7252C566.831 66.6886 542.97 102.371 508.888 129.907C493.573 142.275 477.146 152.969 459.239 161.19C448.974 165.9 438.221 169.04 426.683 168.166C411.205 166.996 401.607 156.613 402.125 141.164C402.762 122.649 411.604 107.14 421.469 92.3135C438.192 67.1774 455.877 42.53 468.022 14.8166C482.938 -19.2067 482.76 -53.1412 465.119 -86.8536C452.203 -111.516 435.762 -133.852 420.343 -156.781C401.192 -185.28 372.975 -197.337 338.494 -191.516L338.509 -191.575Z" fill="#1A3B7E"/>
<path d="M930.09 -415.906C930.712 -393.999 938.71 -374.802 949.76 -356.88C964.098 -333.729 982.953 -313.777 998.831 -291.751C1015.21 -269.044 1021.34 -242.59 1017.29 -214.284C1015.81 -204.004 1012.24 -193.873 1014.31 -183.267C1015.88 -175.313 1019.36 -169.462 1028.82 -169.403C1040.66 -169.344 1045.33 -172.425 1048.11 -182.542C1049.16 -186.319 1048.98 -190.54 1051.8 -193.754L1051.8 -122.745C1030.96 -121.945 1011.91 -129.885 992.24 -134.817C970.689 -140.194 949.73 -148.192 926.891 -147.111C905.369 -146.059 886.514 -138.416 870.014 -124.937C846.67 -105.859 829.726 -81.2861 813.388 -56.4018C808.53 -48.9958 804.842 -40.6713 804.96 -31.1324C805.035 -23.8004 807.597 -17.757 814.04 -15.1205C821.801 -11.9655 830.333 -9.92147 837.324 -17.6386C845.974 -27.1479 852.388 -38.3458 856.831 -50.0622C862.193 -64.1633 868.503 -77.6572 877.775 -89.2847C888.587 -102.882 904.614 -107.948 921.232 -109.414C937.94 -110.866 954.44 -108.244 970.97 -104.748C997.809 -99.105 1024.22 -91.151 1051.77 -89.1217L1051.77 -57.3498C1026.91 -64.9335 1002.61 -74.2652 977.354 -80.5159C941.984 -89.2994 912.464 -81.1528 890.572 -50.4622C873.02 -25.8741 853.069 -4.01144 827.563 13.2002C797.629 33.3743 772.982 58.9844 760.91 94.3853C759.503 98.5178 756.645 101.88 754.008 105.376C748.794 112.249 742.603 112.145 735.849 108.857C730.087 106.057 726.147 101.125 722.918 95.7924C708.299 71.7968 703.574 45.1351 702.389 17.6142C701.515 -2.58945 698.938 -22.3932 691.755 -41.5305C687.252 -53.5431 678.602 -60.164 666.738 -62.8154C653.007 -65.9111 642.461 -58.5495 635.722 -48.4032C618.644 -22.6598 602.929 3.9575 588.517 31.4043C573.083 60.8211 554.524 88.3568 531.433 112.441C513.288 131.371 492.433 146.672 468.971 158.685C455.463 165.602 442.044 171.245 426.61 170.623C410.761 169.986 399.904 158.359 399.46 142.569C399.09 128.912 404.096 116.633 410.406 105.494C427.247 75.7517 449.39 49.2084 463.55 17.6735C470.245 2.78734 474.763 -12.2618 476.214 -28.3477C479.014 -59.4382 464.054 -84.6928 448.976 -109.785C440.681 -123.575 430.772 -136.313 422.137 -149.925C406.584 -174.439 385.537 -190.777 354.492 -190.155C335.962 -189.785 318.499 -185.519 301.199 -179.075C279.811 -171.092 260.467 -159.775 242.93 -145.511C227.481 -132.936 214.328 -117.946 202.405 -101.993C190.022 -85.463 177.062 -69.1401 171.108 -48.7883C164.057 -24.8372 180.128 -3.25594 204.967 -3.13744C215.306 -3.09301 224.948 -7.25521 235.183 -7.86251C252.735 -8.94379 268.643 -5.74437 282.773 5.85349C298.015 18.3549 305.85 36.4404 318.692 50.8081C331.548 65.1907 349.545 69.0862 364.534 57.1477C382.678 42.7059 397.683 25.2277 409.117 5.21652C419.974 -13.7281 425.558 -33.7985 418.449 -56.2388C407.888 -89.4475 387.314 -111.562 353.322 -120.908C338.539 -124.967 323.668 -127.677 308.309 -126.418C301.525 -125.87 296.178 -128.507 294.208 -134.639C292.223 -140.786 297.333 -144.919 301.629 -148.266C304.991 -150.903 308.96 -153.08 312.989 -154.487C360.016 -170.84 387.996 -153.776 409.991 -114.524C416.642 -102.645 423.588 -90.9435 430.876 -79.4938C440.4 -64.5187 447.88 -48.7883 445.673 -30.762C443.081 -9.69922 432.579 8.25303 420.656 25.5239C408.747 42.8096 396.409 59.7695 387.848 79.2622C382.086 92.3561 368.341 103.821 351.87 98.192C337.073 93.1411 325.935 83.691 316.085 72.6708C304.561 59.7547 294.164 45.8017 283.662 31.9968C269.961 14.0149 248.469 7.51244 227.215 14.6371C211.47 19.8954 199.309 30.3823 186.867 40.5138C165.746 57.681 144.787 74.7297 119.43 85.8832C99.2858 94.7557 81.1414 107.316 64.3301 121.758C36.173 145.961 19.4062 177.57 6.0164 211.149C-3.31498 234.522 -18.3637 252.03 -41.0405 262.458C-56.104 269.375 -71.8043 269.538 -88.0972 265.361C-99.7392 262.369 -107.649 253.763 -117.973 249.098L-117.973 -77.9088C-112.107 -70.4731 -113.825 -61.186 -112.759 -52.8912C-109.782 -29.8732 -105.175 -7.1515 -102.094 15.8221C-99.1024 37.9661 -97.8879 60.1694 -100.643 82.5357C-103.22 103.406 -104.864 124.395 -106.73 145.324C-107.649 155.544 -102.228 161.632 -93.0147 164.965C-89.2229 166.328 -85.209 167.335 -81.7727 169.32C-74.9593 173.23 -68.1014 177.511 -69.7011 187.198C-71.5674 198.366 -81.1062 208.083 -91.7706 209.801C-92.3927 209.89 -93.0444 209.742 -93.6369 209.89C-98.5544 211.06 -106.375 209.653 -107.649 214.156C-109.219 219.666 -102.198 223.221 -97.8137 226.361C-72.3672 244.654 -44.7582 237.766 -30.7463 208.764C-21.1039 188.812 -10.8838 169.423 4.59443 153.337C21.8353 135.415 40.7351 119.551 61.5603 105.761C75.9129 96.2665 91.717 88.3864 102.648 74.3298C111.239 63.2799 112.883 51.4747 106.632 38.8104C100.293 26.0128 90.4431 19.3177 75.6907 19.0659C59.0423 18.7696 43.3271 24.1613 26.975 25.5684C-5.93665 28.3827 -36.7303 23.8502 -62.7693 1.75056C-68.1904 -2.82637 -71.8933 -9.29926 -74.6186 -15.8906C-83.6686 -37.7533 -87.4012 -60.9638 -92.0669 -83.9966C-96.3475 -105.089 -98.6432 -126.981 -110.137 -146.015C-112.137 -149.348 -113.233 -153.643 -117.973 -154.502L-117.973 -216.165C-110.122 -207.366 -105.353 -196.598 -99.7986 -186.452C-84.0685 -157.761 -73.9373 -126.952 -68.694 -94.7354C-66.8129 -83.0931 -64.7096 -71.3175 -60.9178 -60.4602C-55.1412 -43.9595 -44.5656 -30.3176 -28.7615 -20.9712C1.73581 -2.94487 33.6254 -3.40407 66.4482 -12.0988C106.736 -22.7931 136.907 -47.8996 164.176 -78.2496C187.815 -104.556 207.056 -134.402 231.451 -160.027C272.82 -203.456 324.691 -222.46 384.752 -199.324C404.17 -191.829 421.544 -180.379 436.46 -165.404C446.976 -154.843 458.633 -145.526 472.393 -139.409C496.951 -128.522 522.175 -130.492 546.822 -138.076C566.655 -144.193 585.732 -152.666 605.121 -160.086C626.968 -168.44 649.645 -174.721 672.87 -174.513C697.813 -174.291 723.081 -171.877 744.366 -155.88C756.852 -146.519 764.006 -132.847 773.278 -120.879C778.699 -113.887 784.861 -107.548 792.948 -104.363C806.442 -99.0162 820.676 -106.659 828.185 -122.36C844.463 -156.354 871.273 -177.031 907.487 -186.674C921.41 -190.392 936.118 -191.547 948.975 -199.235C971.118 -212.506 981.101 -235.687 977.68 -260.868C973.873 -288.744 959.106 -311.11 944.398 -333.595C932.563 -351.666 919.796 -369.189 910.538 -388.77C898.63 -413.921 897.297 -440.02 906.021 -466.548L939.658 -466.548C934.889 -449.974 929.527 -433.71 930.045 -415.891L930.09 -415.906ZM429.306 118.84C424.581 125.417 420.285 132.112 427.602 139.577C434.83 146.983 446.872 148.39 454.826 142.347C472.2 129.075 487.412 113.345 501.498 96.8441C518.739 76.6404 535.135 55.5628 550.095 33.6261C564.389 12.7115 578.46 -8.38096 593.108 -29.0438C606.676 -48.2107 620.303 -67.9108 642.846 -77.8645C666.412 -88.2478 680.631 -89.3438 693.873 -65.4223C697.457 -58.9198 702.034 -52.9802 704.093 -45.7074C705.1 -42.1525 706.937 -39.0716 710.862 -39.042C714.994 -38.9976 715.009 -42.7598 715.735 -45.8111C723.496 -78.9606 703.708 -110.259 664.234 -109.681C637.04 -110.421 617.252 -97.4905 598.855 -81.7601C576.134 -62.3859 561.767 -36.2277 543.86 -12.9431C524.382 12.3708 504.342 37.1514 482.628 60.5841C465.98 78.5215 449.272 96.4294 432.624 114.382C431.365 115.744 430.357 117.329 429.276 118.825L429.306 118.84ZM735.908 -131.173C710.003 -154.798 679.327 -162.412 645.32 -156.339C619.222 -151.673 597.004 -139.068 575.734 -123.041C552.524 -105.548 533.24 -85.1076 518.146 -60.7269C502.653 -35.7093 492.27 -8.35136 483.265 21.8357C499.395 14.7703 509.319 3.91306 518.531 -7.59594C532.277 -24.7335 543.297 -43.7523 555.472 -61.9711C578.386 -96.2019 610.646 -119.472 650.4 -127.278C693.991 -135.839 725.688 -117.502 736.634 -71.6879C741.685 -50.5659 737.967 -28.5995 731.776 -7.34414C728.354 4.44628 721.926 15.5405 722.8 28.5159C723.111 33.0928 723.215 37.6402 728.177 39.2991C732.798 40.8544 736.99 39.9212 740.915 36.1441C751.016 26.3681 754.852 13.3483 758.926 0.787678C764.362 -15.9796 768.835 -33.3394 767.576 -51.1287C765.502 -81.0046 759.444 -109.71 735.908 -131.158L735.908 -131.173Z" fill="#1A3B7E"/>
<path d="M952.632 -47.6923C932.606 -45.5594 916.343 -34.3911 904.553 -18.8532C883.609 8.74171 856.904 29.7453 830.035 50.7933C798.531 75.4554 774.876 105.361 770.151 146.539C767.944 165.705 770.196 184.843 773.914 203.906C776.654 217.933 781.749 231.204 785.082 245.039C792.843 276.989 771.944 297.326 743.979 297.429C708.253 297.592 672.483 297.296 637.587 305.517C613.606 311.145 590.056 318.818 568.623 331.601C558.818 337.452 549.131 343.51 540.14 350.605C521.344 365.417 513.909 386.183 509.984 408.668C504.429 440.41 510.028 470.894 520.826 500.784C534.823 539.562 555.781 574.667 577.629 609.313C581.495 615.445 584.279 622.095 586.145 628.894C589.241 640.181 582.917 652.105 572.993 655.704C563.143 659.259 549.931 653.053 544.11 642.21C531.683 619.148 518.619 596.396 506.962 572.964C499.393 557.752 493.513 541.681 487.41 525.787C475.176 493.897 468.822 460.851 470.821 426.62C472.258 402.21 473.517 377.696 476.953 353.537C481.96 318.477 502.859 294.941 534.971 280.958C542.317 277.744 549.546 274.189 557.055 271.479C574.503 265.198 585.938 251.853 597.58 238.492C606.304 228.479 612.732 216.511 623.086 207.92C634.876 198.114 648.236 192.604 663.907 192.93C677.86 193.226 691.753 192.708 705.439 196.811C733.433 205.224 738.825 187.805 735.24 166.52C732.233 148.672 719.14 140.466 700.329 136.94C685.354 134.126 670.957 135.252 656.62 140.599C630.595 150.316 613.266 168.549 603.475 194.1C588.026 234.419 560.551 260.903 517.434 269.123C507.777 270.975 497.705 271.212 487.81 271.345C478.642 271.434 470.021 272.93 461.638 276.692C451.077 281.432 444.827 292.749 446.856 303.932C448.515 313.086 450.692 322.091 453.951 330.816C467.859 367.772 459.713 401.884 441.02 434.915C433.688 447.861 424.313 459.355 417.114 472.508C404.568 495.363 411.56 508.679 429.882 523.802C448.085 538.807 466.911 553.041 480.079 573.216C492.106 591.701 501.452 611.431 508.058 632.464C513.109 648.594 515.834 665.347 526.262 679.685C542.243 701.71 570.075 704.169 591.552 684.336C617.072 660.74 616.924 633.16 607.696 602.395C598.143 570.535 584.916 540.11 574.281 508.724C566.801 486.698 560.714 464.554 560.255 440.988C559.618 409.749 570.06 382.288 588.886 358.322C608.733 333.038 634.609 318.107 667.773 315.885C698.937 313.767 724.146 323.973 741.431 349.464C753.844 367.772 753.918 388.998 748.082 410.268C742.498 430.605 729.908 447.416 720.665 465.872C703.143 500.977 705.572 534.615 731.36 564.373C750.452 586.398 772.358 605.876 796.738 622.214C800.012 624.421 803.152 626.732 807.714 626.702C812.646 626.657 816.29 624.924 818.689 620.984C821.104 617 820.748 612.838 818.201 608.72C811.772 598.278 801.493 591.301 794.383 581.377C777.009 557.159 764.597 531.134 766.108 500.695C768.3 456.748 788.696 423.762 827.976 402.98C846.743 393.056 866.902 389.842 887.89 389.131C930.903 387.65 974.05 387.25 1016.54 379.547C1028.59 377.385 1040.1 372.378 1051.84 368.675L1051.84 344.384C1036.05 349.583 1021.46 357.67 1005.69 363.047C974.746 373.593 943.463 378.422 910.715 374.704C892.615 372.66 874.544 368.853 856.089 370.557C832.375 372.749 811.876 380.984 796.561 400.284C779.053 422.369 770.551 448.438 762.257 474.671C758.139 487.646 754.051 500.607 749.489 513.404C748.038 517.522 746.393 523.314 740.039 521.462C734.44 519.803 732.337 515.3 732.174 509.198C731.789 493.467 735.329 478.211 739.476 463.502C750.837 423.184 770.24 386.672 795.346 353.049C810.499 332.786 827.339 313.782 838.3 290.393C852.682 259.732 850.061 230.568 834.656 201.58C829.576 191.982 823.607 182.813 818.926 173.052C813.046 160.788 810.38 147.827 813.994 134.245C821.474 106.013 842.433 89.2602 865.302 74.2408C883.935 62.0208 905.101 56.8217 926.756 55.1776C943.641 53.889 960.393 56.5107 971.428 72.2708C981.085 86.1201 979.885 101.836 978.167 117.122C976.079 135.563 979.945 152.33 989.957 167.424C999.911 182.428 1011.11 196.974 1012.41 215.592C1014.92 250.83 991.039 277.596 953.565 280.958C932.044 282.884 910.552 285.461 889.134 288.453C874.219 290.542 866.398 300.125 865.08 315.944C864.132 327.32 872.426 339.733 884.009 344.25C909.382 354.16 935.569 351.167 961.149 347.094C987.513 342.888 1012.63 333.956 1034.21 317.011C1039.47 312.878 1045.92 310.286 1051.81 306.998L1051.81 260.281C1049.15 262.339 1048.67 265.48 1047.62 268.398C1040.45 288.201 1027.05 303.547 1009.33 313.678C977.234 332.015 941.434 335.511 905.175 334.889C895.755 334.741 889.623 326.387 889.09 316.507C888.542 306.361 895.814 304.909 902.746 303.384C919.513 299.725 936.739 301.236 953.698 300.051C968.466 299.044 981.781 295.963 994.075 288.172C1021.42 270.871 1030.02 245.572 1027.82 216.926C1026.51 199.773 1019.25 184.724 1012.12 169.542C1004.95 154.27 999.259 138.466 1002.01 121.18C1003.51 111.745 1006.93 102.561 1008.01 93.0965C1010.71 69.8712 1008.81 59.873 989.661 48.8084C981.47 44.0834 972.924 40.958 963.578 39.7582C953.58 38.4696 943.863 31.3449 943.774 24.1907C943.656 14.948 950.277 9.76376 957.757 6.16442C970.954 -0.189967 983.81 -0.412163 996.963 7.58636C1035.81 31.2264 1042.38 57.4587 1037.81 97.2587C1035.59 116.692 1032.29 136.185 1037.15 155.411C1040.57 168.994 1043.68 182.961 1051.81 194.9L1051.81 39.8026C1050.52 38.4992 1049.04 37.3587 1048.02 35.8774C1037.09 20.1766 1024.53 6.59398 1006.38 -1.2268C981.011 -12.2026 956.468 -12.8839 933.54 4.06109C918.121 15.4812 904.109 28.8269 888.467 39.9064C864.235 57.1032 839.026 72.8484 818.334 94.6518C797.272 116.855 792.991 143.013 800.397 171.304C803.967 184.902 810.454 197.759 815.994 210.808C824.866 231.664 830.702 252.815 825.651 275.774C821.711 293.771 815.46 310.271 798.694 320.373C796.22 321.854 793.391 324.876 790.31 322.447C786.815 319.677 790.177 316.789 791.258 314.152C802.663 286.083 808.543 257.126 800.901 227.25C796.842 211.416 789.599 196.411 784.119 180.932C776.476 159.307 775.898 137.296 786 116.648C796.798 94.5481 814.794 77.8105 833.427 62.2578C860.31 39.8175 889.223 19.8804 913.484 -5.72968C935.702 -29.1624 964.259 -32.4655 994.208 -28.0663C1016.28 -24.8077 1034.5 -12.7951 1051.8 0.56544L1051.8 -23.7264C1035.22 -27.8738 1020.14 -36.0945 1003.94 -41.3231C987.143 -46.7443 969.947 -49.5586 952.617 -47.7071L952.632 -47.6923Z" fill="#1A3B7E"/>
<path d="M660.842 -17.655C666.974 -16.3663 668.396 -10.5008 669.388 -5.39059C671.388 4.91862 673.047 15.3167 674.291 25.7148C676.512 44.4521 678.068 63.3671 684.881 81.1565C692.154 100.146 691.532 101.79 672.01 105.67C669.299 106.218 666.574 106.752 663.819 107.152C618.243 113.817 588.797 139.175 574.608 182.975C567.172 205.904 555.886 226.345 532.439 236.906C521.819 241.69 510.34 242.979 498.935 243.378C481.516 243.956 464.068 243.423 446.635 243.601C429.927 243.749 415.678 253.702 413.293 267.73C411.916 275.935 411.857 284.423 413.93 292.732C418.226 309.825 422.269 327.007 426.654 344.056C432.771 367.844 431.216 391.633 420.625 413.125C405.354 444.127 380.13 467.011 351.603 486.045C340.938 493.169 329.459 493.036 318.232 486.756C299.717 476.402 290.46 457.917 306.649 438.32C314.144 429.241 322.29 420.62 328.881 410.933C348.981 381.309 352.787 346.915 354.372 312.625C355.35 291.695 351.603 270.677 345.396 250.414C333.443 211.414 318.365 174.088 289.971 143.471C273.278 125.459 252.631 114.543 228.665 115.224C199.086 116.069 174.721 131.014 155.555 153.099C136.966 174.547 128.123 201.09 119.073 227.559C107.802 260.546 97.4186 294.051 74.7566 321.853C57.2344 343.375 35.8907 359.194 9.15555 366.734C-10.2182 372.214 -29.0439 377.872 -46.2106 389.396C-70.4278 405.66 -80.2776 440.127 -72.62 466.937C-67.9987 483.157 -56.9936 494.962 -46.0329 506.737C-29.1179 524.897 -8.73692 539.591 6.59321 559.454C31.4029 591.625 33.906 627.797 14.4286 663.834C6.69687 678.143 -4.23419 689.963 -13.2693 703.205L-54.3719 703.205C-39.7379 690.511 -22.3638 680.898 -11.8919 663.612C6.38574 633.44 11.9254 604.675 -14.4098 571.999C-27.8292 555.351 -46.4772 544.879 -61.9258 530.659C-78.5446 515.358 -96.4964 501.464 -109.783 482.846C-111.901 479.868 -115.159 477.75 -117.899 475.247L-117.899 365.001C-106.539 366.23 -95.1782 368.437 -83.8176 368.496C-45.1146 368.718 -11.7882 354.188 18.5017 330.755C34.5873 318.328 49.4287 304.834 61.8705 288.866C72.5646 275.15 80.1777 259.553 87.2577 243.793C102.351 210.229 116.896 176.265 140.58 147.692C156.858 128.052 176.039 111.744 200.997 102.782C212.491 98.6496 224 95.5094 235.864 94.2208C262.243 91.3769 279.04 107.359 294.962 125.311C308.811 140.908 318.528 159.438 331.74 175.48C341.057 186.826 352.091 194.188 366.503 196.602C367.718 196.794 368.992 196.869 370.221 196.794C373.924 196.587 378.56 196.409 379.937 193.003C381.196 189.862 377.493 187.122 375.242 184.515C371.11 179.775 364.978 178.072 360.371 173.717C335.413 150.196 314.84 122.941 293.437 96.3981C277.485 76.55 256.985 68.1664 231.939 71.9435C196.079 77.3499 167.078 96.5908 140.091 119.283C117.207 138.509 97.9666 161.171 82.3699 186.574C68.1506 209.711 54.4943 233.232 41.4155 257.08C24.2784 288.304 -1.4496 310.018 -34.8648 322.964C-44.1814 326.593 -53.3943 329.689 -63.2145 331.422C-82.0254 334.725 -100.022 330.859 -117.929 325.778L-117.929 288.407C-110.286 291.488 -102.851 296.317 -94.9412 297.295C-75.6564 299.709 -56.4456 301.634 -36.8348 296.376C-1.73106 287 21.8344 264.841 38.9419 233.988C47.0143 219.398 50.5395 203.282 55.3682 187.67C64.27 158.831 80.0592 136.035 107.357 121.934C121.088 114.854 134.418 106.93 148.163 99.879C171.877 87.7331 190.821 69.2032 211.602 53.1025C233.538 36.1426 260.703 40.3196 277.603 59.4124C297.273 81.6749 315.166 105.537 333.814 128.688C346.966 144.982 361.438 160.49 379.345 170.962C413.59 190.988 450.767 194.306 487.352 178.664C525.581 162.312 556.656 135.665 582.888 103.345C602.558 79.1272 614.229 50.2881 629.485 23.5374C635.765 12.5469 640.653 0.75644 648.533 -9.30097C651.673 -13.3299 654.487 -18.9585 660.842 -17.6106L660.842 -17.655ZM475.74 192.603C455.255 198.453 434.015 201.179 412.953 204.467C398.793 206.689 385.64 211.192 375.02 222.064C360.149 237.306 355.572 254.769 361.319 274.884C365.052 287.963 369.821 300.76 373.939 313.736C378.012 326.548 379.863 339.687 379.108 351.27C380.441 385.5 366.562 411.703 345.545 434.854C340.538 440.364 335.058 445.475 330.837 451.651C326.067 458.598 328.407 464.212 336.628 465.663C347.603 467.589 354.906 460.39 362.119 454.391C382.174 437.683 398.482 418.087 406.421 392.595C412.271 373.814 411.857 354.928 408.45 335.717C404.88 315.647 395.031 297.843 389.091 278.646C380.826 251.925 392.009 237.543 412.656 230.536C429.823 224.686 447.938 224.671 465.756 222.834C482.968 221.071 500.46 222.197 517.361 217.398C531.106 213.488 541.504 205.03 550.302 194.202C551.072 193.254 551.472 192.01 552.064 190.914C556.641 181.968 555.619 173.688 549.191 167.926C542.259 161.719 536.112 166.83 530.558 169.985C513.198 179.864 494.713 187.137 475.71 192.573L475.74 192.603Z" fill="#1A3B7E"/>
<path d="M229.346 157.087C231.064 162.464 227.998 166.093 223.347 169.351C211.942 177.35 200.774 185.571 193.324 197.998C183.918 213.654 181.83 229.103 189.532 246.36C201.663 273.569 203.766 301.179 189.843 328.818C173.565 361.124 156.961 393.281 141.824 426.119C133.159 444.93 127.664 464.971 126.671 486.138C125.694 506.726 131.322 525.478 140.609 543.164C151.599 564.108 167.537 580.402 190.184 588.874C205.736 594.666 222.177 596.28 238.574 596.562C264.924 597.036 291.066 597.036 316.957 604.116C366.384 617.639 407.857 641.65 434.829 686.841C437.91 692.011 440.413 697.18 440.769 703.223L414.611 703.223C400.91 674.651 378.233 655.78 350.254 641.931C330.866 632.348 310.04 627.267 289.408 622.631C270.612 618.424 251.549 614.218 231.923 613.181C217.985 612.455 204.077 611.463 190.125 611.729C164.574 612.218 139.32 615.595 115.636 625.253C89.6863 635.829 72.8898 656.462 61.2774 681.316C58.0484 688.234 54.2122 695.225 53.9456 703.238L29.6544 703.238C36.3789 689.389 45.9472 677.288 52.4496 663.142C65.2913 635.221 69.4683 607.182 60.2999 577.454C52.7903 553.147 38.2748 533.314 21.5079 514.784C8.22182 500.091 -8.94498 489.085 -19.5206 471.859C-31.6514 452.188 -32.1402 432.918 -10.7372 418.713C-2.67965 413.366 6.02962 409.648 14.7833 405.871C42.2295 394.006 67.8686 379.224 90.4416 359.376C127.382 326.893 144.815 284.012 154.369 237.428C159.42 212.795 165.374 188.903 183.311 170.388C192.435 161.012 202.122 151.266 216.593 150.155C222.296 149.711 227.495 151.34 229.316 157.132L229.346 157.087ZM161.39 285.449C157.657 290.248 155.273 296.099 152.147 301.401C133.929 332.122 109.549 358.294 88.6791 387.074C74.0599 407.174 59.5296 427.082 54.9527 452.381C53.6641 459.535 54.5084 466.615 53.827 473.829C53.1605 502.283 63.3362 527.552 77.4222 551.622C80.9918 557.71 83.5394 564.508 89.1531 569.293C92.7967 572.374 96.6033 575.662 101.61 573.484C107.179 571.011 111.252 566.997 111.963 560.287C112.763 552.555 110.482 545.475 107.801 538.543C93.7891 502.594 96.4404 467.148 110.156 431.762C123.531 397.28 146.134 368.411 165.952 337.824C175.091 323.738 179.979 308.2 179.223 291.151C179.016 286.604 178.705 281.523 174.276 279.939C169.181 278.102 164.367 281.598 161.405 285.434L161.39 285.449Z" fill="#1A3B7E"/>
<path d="M921.365 255.705C926.223 256.55 931.215 256.579 936.147 256.994C946.871 256.979 957.224 255.794 966.496 249.795C984.152 238.36 987.706 218.438 975.205 201.508C968.036 191.806 959.609 183.156 953.388 172.639C943.879 156.553 941.79 139.416 944.145 121.493C944.708 117.197 945.286 112.917 945.3 108.606C945.36 91.5133 937.791 84.6257 920.994 86.6253C902.228 88.8619 884.291 94.0758 869.509 106.103C854.534 118.264 846.669 135.105 842.981 153.872C842.744 155.176 843.455 156.923 844.24 158.138C858.963 181.452 870.605 206.662 887.446 228.673C896.496 240.538 905.25 252.847 921.394 255.705L921.365 255.705Z" fill="#1A3B7E"/>
<path d="M262.302 187.418C248.824 188.944 233.434 201.786 229.672 214.762C225.94 227.618 228.087 239.69 232.798 251.97C238.841 267.715 241.699 284.378 240.574 301.175C238.515 332.192 226.192 359.95 210.876 386.478C197.753 409.2 181.327 430.07 172.455 455.162C155.303 503.597 190.169 546.967 237.123 550.018C277.425 552.64 317.061 557.854 354.209 575.569C388.232 591.833 418.151 612.91 442.65 641.942C455.018 656.636 464.201 672.885 472.392 689.904C474.406 694.095 476.258 698.406 476.273 703.205L493.084 703.205C486.389 670.263 475.799 638.965 457.151 610.526C432.371 572.74 398.067 548.167 356.135 532.422C335.472 524.66 313.684 521.15 293.14 513.033C270.138 503.908 251.297 490.266 240.218 467.737C232.146 451.296 232.205 433.58 234.19 415.821C236.708 393.218 246.35 372.392 250.779 350.322C255.859 324.904 254.808 299.116 252.438 273.403C251.342 261.375 250.424 249.303 250.349 237.232C250.29 228.137 256.985 221.59 265.087 221.101C274.715 220.523 282.061 225.323 283.424 234.447C286.001 251.881 289.23 269.3 289.275 286.956C289.334 316.195 284.861 344.901 277.751 373.236C276.848 376.821 276.803 380.612 275.811 384.167C273.9 391.011 272.686 398.461 280.017 401.957C288.016 405.793 300.546 399.483 304.501 391.929C308.056 385.115 309.196 377.635 309.7 370.407C311.818 339.465 315.58 308.537 313.566 277.476C311.996 253.066 307.33 229.04 297.48 206.615C292.222 194.632 279.469 185.493 262.288 187.448L262.302 187.418Z" fill="#1A3B7E"/>
<path d="M22.189 51.0921C22.1742 51.0032 22.1742 50.8995 22.1742 50.8107C6.45898 52.1734 -9.75979 51.5365 -24.8826 55.358C-50.9068 61.9346 -73.1836 79.087 -71.2729 113.57C-70.473 128.263 -62.2822 134.203 -48.1815 129.626C-34.2436 125.108 -22.0387 117.08 -9.40429 109.896C6.93304 100.609 24.159 92.9066 39.5928 81.9605C45.7397 77.5909 50.6424 73.1473 47.6801 65.2673C44.6585 57.2095 38.4376 52.2474 29.6542 51.1365C27.2103 50.8403 24.6774 51.0921 22.2039 51.0921L22.189 51.0921Z" fill="#1A3B7E"/>
<path d="M606.585 401.631C591.3 441.831 598.528 480.698 608.57 520.142C617.62 555.632 632.313 589.004 645.451 622.968C655.908 650.029 655.968 675.417 635.424 698.213C634.12 699.665 633.291 701.235 633.261 703.205L668.765 703.205C669.254 698.717 672.053 695.206 673.816 691.251C678.052 681.772 680.985 671.803 679.666 661.509C677.371 643.808 670.809 627.1 662.722 611.503C647.925 583.02 634.743 554.58 632.847 521.624C631.247 493.955 629.825 466.922 640.045 440.172C648.162 418.931 661.389 401.942 677.859 387.159C686.302 379.59 700.936 380.005 707.157 386.611C712.074 391.87 710.371 402.253 703.395 411.984C692.597 427.063 681.577 441.86 672.809 458.435C655.183 491.777 656.471 524.586 670.528 558.52C681.385 584.767 699.099 607.074 711.349 632.462C718.221 646.741 722.68 661.494 720.725 677.269C719.643 686.067 716.059 694.569 713.6 703.205L752.836 703.205C753.547 695.503 758.272 689.341 761.501 682.838C774.432 656.932 766.271 635.943 747.8 617.043C729.789 598.617 710.416 581.346 696.211 559.617C674.927 527.06 669.372 488.696 697.84 453.829C709.201 439.92 722.206 426.708 727.716 408.326C737.373 376.021 720.473 350.455 688.154 346.53C647.792 341.657 619.338 368.037 606.571 401.616L606.585 401.631Z" fill="#1A3B7E"/>
<path d="M979.219 433.329C948.796 434.1 918.254 431.137 888.009 437.062C850.624 444.409 818.942 469.426 813.269 505.657C809.507 529.593 818.394 548.745 835.116 564.15C851.927 579.599 872.501 589.7 893.193 599.239C923.127 613.044 954.469 621.739 987.277 624.627C1007.11 626.39 1027.02 626.434 1046.81 623.279C1048.72 622.983 1050.36 622.198 1051.81 620.969C1040.29 620.332 1029 622.909 1017.46 623.087C976.227 623.665 936.976 615.518 899.28 598.943C877.655 589.434 856.563 578.991 838.552 563.602C810.173 539.399 807.314 503.613 829.576 474.166C847.291 450.748 872.308 441.713 900.11 437.817C911.204 436.262 922.327 435.892 933.525 435.936C973.191 436.07 1013.02 437.728 1051.81 426.634C1044.52 422.709 1037.8 427.301 1031.1 428.575C1013.91 431.848 996.608 432.885 979.219 433.314L979.219 433.329Z" fill="#1A3B7E"/>
<path d="M920.002 409.986C901.087 410.726 882.069 413.467 864.517 420.043C832.568 432.026 805.063 450.452 791.451 483.869C780.313 511.256 787.467 535.163 805.655 557.159C822.437 577.466 846.003 587.731 868.146 599.788C897.844 615.963 930.015 626.627 962.645 634.7C991.691 641.869 1021.51 646.638 1051.81 645.276L1051.81 620.984C1040.29 620.347 1029 622.924 1017.46 623.102C976.227 623.68 936.976 615.533 899.28 598.958C877.655 589.449 856.563 579.007 838.552 563.617C810.173 539.414 807.314 503.628 829.576 474.181C847.291 450.763 872.308 441.728 900.11 437.833C911.204 436.277 922.327 435.907 933.525 435.951C973.191 436.085 1013.02 437.744 1051.81 426.649L1051.81 404.224C1008.21 413.748 963.934 408.223 920.002 409.986Z" fill="#1A3B7E"/>
<path d="M311.123 -93.1617C293.704 -91.6509 278.344 -90.3474 263.77 -84.6151C253.505 -80.6011 242.767 -64.8854 242.648 -53.9097C242.589 -49.1105 244.455 -47.2442 249.373 -45.8223C259.533 -42.9043 270.227 -45.8223 280.329 -40.9195C300.058 -31.3213 316.307 -18.2718 327.697 0.569179C328.675 2.15407 329.504 3.85746 330.674 5.29424C339.917 16.8773 351.085 18.2696 360.46 6.64214C374.25 -10.4066 381.967 -30.4177 378.235 -52.7395C374.946 -72.3063 360.86 -83.0302 342.923 -88.1256C332.052 -91.2065 320.469 -91.7546 311.123 -93.1321L311.123 -93.1617Z" fill="#1A3B7E"/>
<path d="M655.805 224.348C639.29 226.037 623.056 245.855 624.034 262.282C624.537 270.547 631.321 272.517 637.986 273.287C643.511 273.909 649.184 273.406 656.219 273.406C682.984 272.191 711.171 271.065 739.358 269.555C746.882 269.14 754.08 265.718 755.991 258.194C757.946 250.477 754.273 243.633 746.838 239.56C732.84 231.902 717.836 226.777 702.062 225.044C686.732 223.326 671.431 222.778 655.79 224.348L655.805 224.348Z" fill="#1A3B7E"/>
<path d="M920.965 86.6402C902.198 88.8768 884.261 94.0907 869.479 106.118C854.505 118.279 846.64 135.12 842.951 153.887C842.714 155.191 843.425 156.938 844.21 158.153C858.933 181.467 870.575 206.677 887.416 228.688C896.466 240.553 905.22 252.861 921.365 255.72C926.223 256.564 931.215 256.594 936.147 257.009C946.871 256.994 957.224 255.809 966.496 249.81C984.152 238.375 987.706 218.453 975.205 201.523C968.036 191.821 959.609 183.171 953.388 172.654C943.879 156.568 941.79 139.43 944.145 121.508C944.708 117.212 945.286 112.932 945.3 108.621C945.36 91.5281 937.791 84.6405 920.994 86.6402L920.965 86.6402Z" fill="#1A3B7E"/>
<path d="M22.1606 50.8107C6.4454 52.1734 -9.77347 51.5365 -24.8962 55.358C-50.9204 61.9346 -73.1973 79.087 -71.2865 113.57C-70.4867 128.263 -62.2958 134.203 -48.195 129.626C-34.2572 125.108 -22.0524 117.08 -9.41796 109.896C6.91937 100.609 24.1453 92.9066 39.5791 81.9605C45.726 77.5909 50.6287 73.1473 47.6664 65.2673C44.6448 57.2095 38.4239 52.2474 29.6405 51.1365C27.1966 50.8403 24.6638 51.0921 22.1902 51.0921C22.1754 51.0032 22.1754 50.8995 22.1754 50.8107L22.1606 50.8107Z" fill="#1A3B7E"/>
<rect x="1119.07" y="113.196" width="540.94" height="1073.26" transform="rotate(117.02 1119.07 113.196)" fill="url(#paint0_linear_1913_49892)" fill-opacity="0.78"/>
<path d="M523.364 532.042C639.423 649.22 828.499 650.128 945.677 534.07C1062.86 418.011 1063.76 228.935 947.705 111.757C831.647 -5.42188 642.571 -6.32981 525.392 109.729C408.214 225.787 407.306 414.863 523.364 532.042Z" fill="#1F4C93"/>
<path d="M735.535 321.897L1010.87 437.497C1042.86 361.323 1040.86 279.381 1011.8 208.539L735.771 321.326L735.535 321.897Z" fill="#173560"/>
<path d="M735.534 321.897L460.195 206.297C428.212 282.471 430.205 364.414 459.271 435.256L735.299 322.468L735.534 321.897Z" fill="#173560"/>
<path d="M735.534 321.897L622.108 45.6522C698.537 14.2662 780.458 16.8999 851.066 46.5285L736.117 321.657L735.544 321.887L735.534 321.897Z" fill="#173560"/>
<path d="M735.535 321.897L848.971 598.132C772.541 629.518 690.621 626.884 620.013 597.256L734.962 322.127L735.535 321.897Z" fill="#173560"/>
<path d="M735.515 325.794L621.308 597.813L618.56 596.655L732.766 324.646L459.663 436.235L458.532 433.466L731.635 321.877L459.616 207.67L460.774 204.921L732.793 319.128L621.204 46.0247L623.964 44.8935L735.553 317.997L849.759 45.9778L852.508 47.1354L738.301 319.154L1011.4 207.565L1012.54 210.325L739.433 321.914L1011.45 436.121L1010.29 438.879L738.275 324.673L849.864 597.766L847.104 598.897L735.515 325.794Z" fill="white"/>
<g filter="url(#filter0_i_1913_49892)">
<circle cx="737.366" cy="322.016" r="294.435" transform="rotate(90.2751 737.366 322.016)" fill="white" fill-opacity="0.01"/>
</g>
<g filter="url(#filter1_d_1913_49892)">
<path d="M732.23 76.8635L705.371 13.554L759.088 13.554L732.23 76.8635Z" fill="#DB1D31"/>
<path d="M706.096 14.0334L758.363 14.0334L732.23 75.635L706.096 14.0334Z" stroke="url(#paint1_linear_1913_49892)" stroke-opacity="0.55" stroke-width="0.959236"/>
</g>
<g clip-path="url(#paint2_diamond_1913_49892_clip_path)" data-figma-skip-parse="true"><g transform="matrix(0.13013 0.352198 -0.391709 0.144729 607.765 298.446)"><rect x="0" y="0" width="1306.1" height="1284.4" fill="url(#paint2_diamond_1913_49892)" opacity="1" shape-rendering="crispEdges"/><rect x="0" y="0" width="1306.1" height="1284.4" transform="scale(1 -1)" fill="url(#paint2_diamond_1913_49892)" opacity="1" shape-rendering="crispEdges"/><rect x="0" y="0" width="1306.1" height="1284.4" transform="scale(-1 1)" fill="url(#paint2_diamond_1913_49892)" opacity="1" shape-rendering="crispEdges"/><rect x="0" y="0" width="1306.1" height="1284.4" transform="scale(-1)" fill="url(#paint2_diamond_1913_49892)" opacity="1" shape-rendering="crispEdges"/></g></g><path d="M737.896 -5.47388C556.714 -5.47388 409.837 141.408 409.837 322.588C409.837 503.768 556.714 650.643 737.896 650.643C919.077 650.643 1065.95 503.768 1065.95 322.588C1065.95 141.408 919.077 -5.47388 737.896 -5.47388ZM737.896 616.534C575.544 616.534 443.939 484.931 443.939 322.588C443.939 160.246 575.544 28.635 737.896 28.635C900.247 28.635 1031.84 160.239 1031.84 322.588C1031.84 484.938 900.24 616.534 737.896 616.534Z" data-figma-gradient-fill="{&#34;type&#34;:&#34;GRADIENT_DIAMOND&#34;,&#34;stops&#34;:[{&#34;color&#34;:{&#34;r&#34;:0.20726238191127777,&#34;g&#34;:0.47628051042556763,&#34;b&#34;:0.87980771064758301,&#34;a&#34;:1.0},&#34;position&#34;:0.0},{&#34;color&#34;:{&#34;r&#34;:0.13059356808662415,&#34;g&#34;:0.27503004670143127,&#34;b&#34;:0.54326921701431274,&#34;a&#34;:1.0},&#34;position&#34;:1.0}],&#34;stopsVar&#34;:[{&#34;color&#34;:{&#34;r&#34;:0.20726238191127777,&#34;g&#34;:0.47628051042556763,&#34;b&#34;:0.87980771064758301,&#34;a&#34;:1.0},&#34;position&#34;:0.0},{&#34;color&#34;:{&#34;r&#34;:0.13059356808662415,&#34;g&#34;:0.27503004670143127,&#34;b&#34;:0.54326921701431274,&#34;a&#34;:1.0},&#34;position&#34;:1.0}],&#34;transform&#34;:{&#34;m00&#34;:260.26016235351562,&#34;m01&#34;:-783.41711425781250,&#34;m02&#34;:869.34393310546875,&#34;m10&#34;:704.39550781250,&#34;m11&#34;:289.45706176757812,&#34;m12&#34;:-198.48075866699219},&#34;opacity&#34;:1.0,&#34;blendMode&#34;:&#34;NORMAL&#34;,&#34;visible&#34;:true}"/>
<g filter="url(#filter2_dif_1913_49892)">
<circle cx="731.985" cy="10.6749" r="13.4293" fill="#FFAB36"/>
</g>
<g filter="url(#filter3_f_1913_49892)">
<circle cx="731.985" cy="10.6749" r="13.4293" fill="#FFAB36"/>
</g>
<g filter="url(#filter4_dif_1913_49892)">
<circle cx="426.947" cy="322.427" r="13.4293" transform="rotate(90 426.947 322.427)" fill="#FFAB36"/>
</g>
<g filter="url(#filter5_f_1913_49892)">
<circle cx="426.947" cy="322.427" r="13.4293" transform="rotate(90 426.947 322.427)" fill="#FFAB36"/>
</g>
<circle cx="516.925" cy="542.868" r="13.4293" transform="rotate(45 516.925 542.868)" fill="#FFAB36"/>
<g filter="url(#filter7_f_1913_49892)">
<circle cx="516.925" cy="542.868" r="13.4293" transform="rotate(45 516.925 542.868)" fill="#FFAB36"/>
</g>
<g filter="url(#filter8_dif_1913_49892)">
<circle cx="516.923" cy="101.985" r="13.4293" transform="rotate(-45 516.923 101.985)" fill="#FFAB36"/>
</g>
<g filter="url(#filter9_f_1913_49892)">
<circle cx="516.923" cy="101.985" r="13.4293" transform="rotate(-45 516.923 101.985)" fill="#FFAB36"/>
</g>
<g filter="url(#filter10_d_1913_49892)">
<circle cx="736.937" cy="321.467" r="45.0841" fill="#D9D9D9"/>
<circle cx="736.937" cy="321.467" r="45.0841" fill="url(#paint3_radial_1913_49892)"/>
</g>
<path d="M502.046 345.815V310.267L494.08 312.165L491.583 302.008L505.424 298.079H514.94V345.815H502.046Z" fill="white"/>
<path d="M540.729 346.764C534.203 346.764 528.939 344.404 524.93 339.691C520.921 334.972 518.923 329.165 518.923 322.257V322.118C518.923 315.21 520.947 309.377 525.002 304.618C529.05 299.859 534.341 297.473 540.867 297.473C547.393 297.473 552.657 299.832 556.666 304.545C560.668 309.265 562.673 315.072 562.673 321.98V322.118C562.673 329.026 560.655 334.86 556.633 339.619C552.604 344.385 547.301 346.764 540.735 346.764H540.729ZM534.518 331.492C536.135 333.904 538.251 335.117 540.867 335.117C543.482 335.117 545.566 333.924 547.143 331.531C548.72 329.138 549.509 326.047 549.509 322.257V322.118C549.509 318.328 548.687 315.204 547.044 312.739C545.401 310.28 543.298 309.047 540.729 309.047C538.159 309.047 536.082 310.247 534.485 312.633C532.888 315.026 532.087 318.144 532.087 321.98V322.118C532.087 325.955 532.895 329.079 534.518 331.498V331.492Z" fill="white"/>
<path d="M566.248 345.815V298.415H579.346L579.28 316.292H581.646L595.96 298.415H611.621L591.977 321.367L612.568 345.808H596.368L581.653 327.662H579.287L579.353 345.808H566.255L566.248 345.815Z" fill="white"/>
<path d="M844.651 344.866V334.978L862.337 321.439C864.584 319.679 866.175 318.17 867.095 316.904C868.015 315.639 868.481 314.307 868.481 312.91C868.481 311.374 867.995 310.181 867.029 309.324C866.063 308.467 864.768 308.039 863.145 308.039C861.614 308.039 860.155 308.513 858.755 309.463C857.362 310.412 855.692 311.994 853.76 314.202L844.914 306.819C847.615 303.346 850.415 300.782 853.32 299.134C856.225 297.486 859.833 296.662 864.157 296.662C869.29 296.662 873.476 298.059 876.716 300.861C879.956 303.662 881.579 307.294 881.579 311.763V311.901C881.579 315.468 880.725 318.427 879.016 320.774C877.308 323.12 874.515 325.698 870.644 328.492L862.54 334.181H882.053V344.879H844.651V344.866Z" fill="white"/>
<path d="M706.515 106.292C706.515 97.9404 709.308 91.2171 714.887 86.1152L723.122 94.4403C719.521 98.0525 717.72 101.823 717.72 105.751C717.72 107.65 718.147 109.126 719.001 110.188C719.856 111.249 721.026 111.776 722.511 111.776H722.649C724.18 111.776 725.37 111.124 726.224 109.812C727.078 108.5 727.506 106.582 727.506 104.057V98.5073L734.327 96.6815L744.12 107.518V89.4308H754.72V123.628H745.401L735.681 112.317C733.88 120.483 729.444 124.57 722.379 124.57H722.241C717.562 124.57 713.77 122.856 710.865 119.422C707.96 115.988 706.515 111.611 706.515 106.285V106.292Z" fill="white"/>
<path d="M706.515 148.207C706.515 141.662 708.867 136.382 713.566 132.361C718.272 128.34 724.062 126.337 730.949 126.337H731.087C737.975 126.337 743.791 128.367 748.536 132.434C753.281 136.494 755.66 141.8 755.66 148.346C755.66 154.891 753.307 160.171 748.608 164.192C743.903 168.206 738.113 170.217 731.225 170.217H731.087C724.2 170.217 718.384 168.193 713.639 164.159C708.887 160.118 706.515 154.799 706.515 148.214V148.207ZM721.742 141.978C719.337 143.6 718.127 145.722 718.127 148.346C718.127 150.969 719.317 153.059 721.703 154.641C724.088 156.223 727.17 157.014 730.949 157.014H731.087C734.866 157.014 737.981 156.19 740.439 154.542C742.891 152.894 744.12 150.785 744.12 148.207C744.12 145.63 742.924 143.547 740.545 141.945C738.159 140.344 735.05 139.54 731.225 139.54H731.087C727.262 139.54 724.147 140.35 721.735 141.978H721.742Z" fill="white"/>
<path d="M707.461 173.802H754.72V186.939L736.897 186.874V189.246L754.72 203.603V219.31L731.837 199.608L707.467 220.26V204.011L725.56 189.253V186.88L707.467 186.946V173.809L707.461 173.802Z" fill="white"/>
<path d="M707.492 444.227H716.673V421.203L725.92 419.106L755.086 443.686V456.889H726.459V462.914H716.666V456.889H707.485V444.227H707.492ZM726.393 432.85V444.227H740.03L726.393 432.85Z" fill="white"/>
<path d="M706.546 486.07C706.546 479.525 708.899 474.245 713.598 470.224C718.303 466.203 724.093 464.199 730.981 464.199H731.119C738.006 464.199 743.822 466.229 748.567 470.29C753.312 474.35 755.691 479.656 755.691 486.202C755.691 492.747 753.339 498.027 748.64 502.048C743.934 506.069 738.144 508.072 731.257 508.072H731.119C724.231 508.072 718.415 506.055 713.67 502.015C708.918 497.974 706.546 492.661 706.546 486.07ZM721.773 479.841C719.368 481.462 718.159 483.585 718.159 486.208C718.159 488.832 719.348 490.928 721.734 492.503C724.119 494.079 727.202 494.87 730.981 494.87H731.119C734.898 494.87 738.013 494.046 740.471 492.398C742.922 490.75 744.151 488.641 744.151 486.063C744.151 483.486 742.955 481.403 740.576 479.801C738.19 478.2 735.082 477.395 731.257 477.395H731.119C727.294 477.395 724.179 478.206 721.767 479.834L721.773 479.841Z" fill="white"/>
<path d="M707.492 511.665H754.752V524.802L736.928 524.736V527.109L754.752 541.465V557.173L731.868 537.471L707.499 558.122V541.874L725.592 527.115V524.742L707.499 524.808V511.671L707.492 511.665Z" fill="white"/>
<path d="M554.379 177.124C549.161 171.891 546.421 165.602 546.171 158.259L557.678 157.35C558.093 162.616 559.591 166.545 562.167 169.129C563.698 170.665 565.236 171.508 566.8 171.667C568.358 171.825 569.745 171.298 570.954 170.085L571.053 169.986C572.262 168.773 572.755 167.369 572.531 165.774C572.308 164.179 571.467 162.643 570.001 161.18C568.279 159.453 565.94 158.227 562.982 157.495L560.596 148.88L578.453 132.889L600.791 155.293L593.154 162.953L578.117 147.871L572.768 152.657C575.252 153.553 577.427 154.937 579.307 156.823C582.521 160.046 584.328 163.678 584.722 167.712C585.117 171.746 583.598 175.49 580.161 178.937L580.063 179.036C576.402 182.707 572.235 184.336 567.556 183.92C562.877 183.505 558.487 181.238 554.379 177.124Z" fill="white"/>
<path d="M584.978 207.815C580.365 203.187 578.301 197.782 578.794 191.606C579.287 185.43 581.968 179.9 586.838 175.015L586.937 174.916C591.807 170.032 597.353 167.343 603.57 166.848C609.794 166.354 615.209 168.424 619.823 173.051C624.437 177.678 626.5 183.083 626.007 189.26C625.514 195.436 622.833 200.966 617.963 205.85L617.865 205.949C612.995 210.834 607.454 213.53 601.25 214.044C595.047 214.558 589.618 212.482 584.972 207.821L584.978 207.815ZM591.353 192.608C590.794 195.462 591.438 197.822 593.285 199.668C595.132 201.513 597.452 202.159 600.258 201.586C603.058 201.012 605.798 199.384 608.467 196.701L608.565 196.603C611.24 193.92 612.863 191.132 613.435 188.225C614.007 185.318 613.389 182.958 611.575 181.139C609.761 179.32 607.448 178.687 604.628 179.247C601.809 179.807 599.049 181.442 596.348 184.158L596.249 184.257C593.542 186.972 591.912 189.754 591.353 192.608Z" fill="white"/>
<path d="M603.689 225.243L637.108 191.725L646.368 201.012L633.717 213.609L635.386 215.283L658.112 212.791L669.186 223.898L639.113 226.198L636.438 258.088L624.983 246.599L627.368 223.331L625.699 221.657L612.949 234.537L603.689 225.249V225.243Z" fill="white"/>
<path d="M806.238 429.488C802.229 425.467 799.85 421.262 799.101 416.872C798.351 412.482 799.429 408.837 802.321 405.93L802.42 405.831C806.172 402.067 810.74 401.283 816.122 403.484C814.88 398.666 815.807 394.704 818.889 391.606L818.988 391.508C821.695 388.792 825.073 387.731 829.135 388.324C833.19 388.91 837.08 391.079 840.807 394.81C844.533 398.541 846.695 402.456 847.3 406.543C847.904 410.63 846.853 414.031 844.152 416.74L844.053 416.839C840.905 419.996 836.942 420.906 832.164 419.568C834.267 425.118 833.531 429.686 829.969 433.258L829.871 433.357C826.881 436.356 823.2 437.477 818.843 436.706C814.486 435.941 810.28 433.529 806.238 429.475V429.488ZM810.7 417.926C810.845 419.508 811.66 421.044 813.158 422.547C814.657 424.05 816.188 424.867 817.765 425.012C819.342 425.157 820.67 424.683 821.754 423.602L821.853 423.503C822.964 422.389 823.411 421.044 823.187 419.482C822.964 417.92 822.136 416.417 820.703 414.98C819.27 413.543 817.772 412.713 816.214 412.488C814.657 412.264 813.316 412.713 812.205 413.833L812.107 413.932C811.022 415.02 810.556 416.351 810.7 417.933V417.926ZM824.738 404.948C824.784 406.398 825.428 407.749 826.67 408.995C827.912 410.241 829.266 410.893 830.725 410.959C832.191 411.025 833.446 410.531 834.497 409.476L834.596 409.377C835.582 408.388 836.042 407.176 835.983 405.739C835.917 404.302 835.253 402.944 833.978 401.672C832.703 400.4 831.428 399.819 829.969 399.754C828.504 399.688 827.295 400.136 826.342 401.092L826.243 401.191C825.192 402.245 824.692 403.498 824.738 404.948Z" fill="white"/>
<path d="M836.167 459.697C831.553 455.07 829.49 449.665 829.982 443.488C830.475 437.312 833.157 431.782 838.027 426.898L838.125 426.799C842.995 421.914 848.542 419.225 854.759 418.731C860.983 418.236 866.398 420.306 871.011 424.933C875.625 429.561 877.689 434.966 877.196 441.142C876.703 447.318 874.021 452.848 869.152 457.733L869.053 457.832C864.183 462.716 858.643 465.412 852.439 465.926C846.235 466.44 840.807 464.364 836.16 459.704L836.167 459.697ZM842.542 444.497C841.983 447.351 842.627 449.711 844.474 451.557C846.32 453.402 848.64 454.048 851.447 453.475C854.246 452.901 856.987 451.273 859.655 448.59L859.754 448.491C862.428 445.809 864.052 443.02 864.623 440.114C865.195 437.207 864.577 434.847 862.764 433.028C860.95 431.208 858.636 430.576 855.817 431.136C852.998 431.696 850.237 433.331 847.536 436.047L847.438 436.146C844.73 438.861 843.1 441.643 842.542 444.497Z" fill="white"/>
<path d="M823.179 266.308L798.12 241.174L793.822 248.161L784.897 242.75L791.916 230.16L798.646 223.41L832.301 257.165L823.186 266.308H823.179Z" fill="white"/>
<path d="M851.203 239.546C846.589 244.174 841.2 246.243 835.042 245.749C828.884 245.255 823.37 242.565 818.5 237.681L818.402 237.582C813.532 232.698 810.85 227.135 810.358 220.899C809.865 214.657 811.922 209.225 816.542 204.598C821.162 199.971 826.544 197.901 832.702 198.395C838.86 198.89 844.374 201.579 849.244 206.464L849.343 206.562C854.213 211.447 856.901 217.003 857.413 223.226C857.919 229.448 855.856 234.893 851.209 239.553L851.203 239.546ZM836.048 233.153C838.893 233.713 841.246 233.067 843.086 231.215C844.926 229.362 845.57 227.036 844.999 224.228C844.427 221.42 842.804 218.671 840.129 215.995L840.03 215.896C837.355 213.213 834.575 211.585 831.677 211.012C828.779 210.438 826.426 211.058 824.612 212.877C822.798 214.696 822.167 217.017 822.726 219.844C823.285 222.672 824.915 225.441 827.622 228.15L827.721 228.249C830.429 230.964 833.202 232.599 836.054 233.153H836.048Z" fill="white"/>
<path d="M883.668 206.984C879.055 211.611 873.666 213.681 867.508 213.187C861.35 212.692 855.836 210.003 850.966 205.119L850.867 205.02C845.998 200.136 843.316 194.572 842.823 188.337C842.33 182.095 844.394 176.663 849.007 172.036C853.621 167.409 859.01 165.339 865.168 165.833C871.326 166.328 876.84 169.017 881.71 173.901L881.808 174C886.678 178.884 889.366 184.441 889.879 190.664C890.391 196.886 888.321 202.331 883.675 206.991L883.668 206.984ZM868.507 200.597C871.352 201.157 873.705 200.511 875.545 198.659C877.385 196.807 878.029 194.48 877.458 191.665C876.886 188.857 875.263 186.109 872.588 183.433L872.489 183.334C869.814 180.651 867.035 179.023 864.136 178.449C861.238 177.876 858.885 178.496 857.071 180.315C855.257 182.134 854.627 184.454 855.185 187.282C855.744 190.11 857.374 192.878 860.081 195.587L860.18 195.686C862.888 198.402 865.661 200.037 868.507 200.597Z" fill="white"/>
<path d="M573.457 517.017L548.398 491.884L544.1 498.871L535.175 493.459L542.194 480.869L548.923 474.119L582.579 507.875L573.463 517.017H573.457Z" fill="white"/>
<path d="M585.004 505.436L578.031 498.442L580.988 476.321C581.336 473.48 581.395 471.285 581.152 469.736C580.916 468.187 580.305 466.922 579.312 465.926C578.228 464.839 577.045 464.338 575.757 464.417C574.469 464.496 573.253 465.109 572.103 466.262C571.018 467.35 570.322 468.721 570 470.382C569.684 472.043 569.618 474.344 569.809 477.277L558.354 478.332C557.815 473.961 557.986 470.158 558.88 466.935C559.774 463.712 561.745 460.567 564.801 457.502C568.429 453.864 572.379 451.886 576.637 451.563C580.903 451.247 584.609 452.664 587.757 455.821L587.856 455.92C590.373 458.445 591.852 461.141 592.292 464.015C592.739 466.889 592.581 470.685 591.812 475.411L590.09 485.18L603.885 471.345L611.43 478.912L584.984 505.436H585.004Z" fill="white"/>
<path d="M628.878 462.775C624.265 467.403 618.876 469.472 612.718 468.978C606.56 468.484 601.046 465.794 596.176 460.91L596.078 460.811C591.208 455.927 588.526 450.364 588.033 444.128C587.54 437.886 589.598 432.454 594.218 427.827C598.838 423.2 604.22 421.13 610.378 421.624C616.536 422.119 622.05 424.808 626.92 429.693L627.019 429.791C631.888 434.676 634.576 440.232 635.089 446.455C635.595 452.684 633.531 458.122 628.885 462.782L628.878 462.775ZM613.723 456.382C616.569 456.942 618.922 456.296 620.762 454.444C622.602 452.591 623.246 450.265 622.674 447.457C622.103 444.649 620.479 441.9 617.805 439.224L617.706 439.125C615.031 436.442 612.251 434.814 609.353 434.241C606.455 433.667 604.102 434.287 602.288 436.106C600.474 437.925 599.843 440.246 600.402 443.073C600.961 445.901 602.59 448.67 605.298 451.379L605.397 451.478C608.104 454.193 610.878 455.828 613.73 456.382H613.723Z" fill="white"/>
<path d="M646.255 444.003L612.836 410.485L622.096 401.197L634.648 413.886L636.318 412.212L633.834 389.418L644.907 378.312L647.201 408.474L678.996 411.157L667.541 422.646L644.342 420.253L642.673 421.928L655.515 434.715L646.255 444.003Z" fill="white"/>
<rect x="-2.80762" y="0.558105" width="510" height="542" fill="url(#paint4_linear_1913_49892)"/>
<rect x="-0.807617" y="539.21" width="200.657" height="866.98" transform="rotate(-89.6344 -0.807617 539.21)" fill="url(#paint5_linear_1913_49892)"/>
</g>
<defs>
<filter id="filter0_i_1913_49892" x="442.932" y="27.5811" width="588.87" height="589.829" filterUnits="userSpaceOnUse" color-interpolation-filters="sRGB">
<feFlood flood-opacity="0" result="BackgroundImageFix"/>
<feBlend mode="normal" in="SourceGraphic" in2="BackgroundImageFix" result="shape"/>
<feColorMatrix in="SourceAlpha" type="matrix" values="0 0 0 0 0 0 0 0 0 0 0 0 0 0 0 0 0 0 127 0" result="hardAlpha"/>
<feOffset dy="0.959236"/>
<feGaussianBlur stdDeviation="54.8683"/>
<feComposite in2="hardAlpha" operator="arithmetic" k2="-1" k3="1"/>
<feColorMatrix type="matrix" values="0 0 0 0 0 0 0 0 0 0 0 0 0 0 0 0 0 0 0.65 0"/>
<feBlend mode="normal" in2="shape" result="effect1_innerShadow_1913_49892"/>
</filter>
<filter id="filter1_d_1913_49892" x="701.534" y="13.554" width="61.3907" height="70.9835" filterUnits="userSpaceOnUse" color-interpolation-filters="sRGB">
<feFlood flood-opacity="0" result="BackgroundImageFix"/>
<feColorMatrix in="SourceAlpha" type="matrix" values="0 0 0 0 0 0 0 0 0 0 0 0 0 0 0 0 0 0 127 0" result="hardAlpha"/>
<feOffset dy="3.83694"/>
<feGaussianBlur stdDeviation="1.91847"/>
<feComposite in2="hardAlpha" operator="out"/>
<feColorMatrix type="matrix" values="0 0 0 0 0 0 0 0 0 0 0 0 0 0 0 0 0 0 0.25 0"/>
<feBlend mode="normal" in2="BackgroundImageFix" result="effect1_dropShadow_1913_49892"/>
<feBlend mode="normal" in="SourceGraphic" in2="effect1_dropShadow_1913_49892" result="shape"/>
</filter>
<clipPath id="paint2_diamond_1913_49892_clip_path"><path d="M737.896 -5.47388C556.714 -5.47388 409.837 141.408 409.837 322.588C409.837 503.768 556.714 650.643 737.896 650.643C919.077 650.643 1065.95 503.768 1065.95 322.588C1065.95 141.408 919.077 -5.47388 737.896 -5.47388ZM737.896 616.534C575.544 616.534 443.939 484.931 443.939 322.588C443.939 160.246 575.544 28.635 737.896 28.635C900.247 28.635 1031.84 160.239 1031.84 322.588C1031.84 484.938 900.24 616.534 737.896 616.534Z"/></clipPath><filter id="filter2_dif_1913_49892" x="705.894" y="-15.4163" width="52.1822" height="52.1825" filterUnits="userSpaceOnUse" color-interpolation-filters="sRGB">
<feFlood flood-opacity="0" result="BackgroundImageFix"/>
<feColorMatrix in="SourceAlpha" type="matrix" values="0 0 0 0 0 0 0 0 0 0 0 0 0 0 0 0 0 0 127 0" result="hardAlpha"/>
<feOffset/>
<feGaussianBlur stdDeviation="6.33096"/>
<feComposite in2="hardAlpha" operator="out"/>
<feColorMatrix type="matrix" values="0 0 0 0 1 0 0 0 0 0.670588 0 0 0 0 0.211765 0 0 0 1 0"/>
<feBlend mode="normal" in2="BackgroundImageFix" result="effect1_dropShadow_1913_49892"/>
<feBlend mode="normal" in="SourceGraphic" in2="effect1_dropShadow_1913_49892" result="shape"/>
<feColorMatrix in="SourceAlpha" type="matrix" values="0 0 0 0 0 0 0 0 0 0 0 0 0 0 0 0 0 0 127 0" result="hardAlpha"/>
<feMorphology radius="2.87771" operator="dilate" in="SourceAlpha" result="effect2_innerShadow_1913_49892"/>
<feOffset dx="0.959236" dy="7.67389"/>
<feGaussianBlur stdDeviation="1.91847"/>
<feComposite in2="hardAlpha" operator="arithmetic" k2="-1" k3="1"/>
<feColorMatrix type="matrix" values="0 0 0 0 1 0 0 0 0 1 0 0 0 0 1 0 0 0 0.25 0"/>
<feBlend mode="normal" in2="shape" result="effect2_innerShadow_1913_49892"/>
<feGaussianBlur stdDeviation="0.52758" result="effect3_foregroundBlur_1913_49892"/>
</filter>
<filter id="filter3_f_1913_49892" x="691.505" y="-29.8048" width="80.9593" height="80.9595" filterUnits="userSpaceOnUse" color-interpolation-filters="sRGB">
<feFlood flood-opacity="0" result="BackgroundImageFix"/>
<feBlend mode="normal" in="SourceGraphic" in2="BackgroundImageFix" result="shape"/>
<feGaussianBlur stdDeviation="13.5252" result="effect1_foregroundBlur_1913_49892"/>
</filter>
<filter id="filter4_dif_1913_49892" x="400.856" y="296.335" width="52.1822" height="52.1825" filterUnits="userSpaceOnUse" color-interpolation-filters="sRGB">
<feFlood flood-opacity="0" result="BackgroundImageFix"/>
<feColorMatrix in="SourceAlpha" type="matrix" values="0 0 0 0 0 0 0 0 0 0 0 0 0 0 0 0 0 0 127 0" result="hardAlpha"/>
<feOffset/>
<feGaussianBlur stdDeviation="6.33096"/>
<feComposite in2="hardAlpha" operator="out"/>
<feColorMatrix type="matrix" values="0 0 0 0 1 0 0 0 0 0.670588 0 0 0 0 0.211765 0 0 0 1 0"/>
<feBlend mode="normal" in2="BackgroundImageFix" result="effect1_dropShadow_1913_49892"/>
<feBlend mode="normal" in="SourceGraphic" in2="effect1_dropShadow_1913_49892" result="shape"/>
<feColorMatrix in="SourceAlpha" type="matrix" values="0 0 0 0 0 0 0 0 0 0 0 0 0 0 0 0 0 0 127 0" result="hardAlpha"/>
<feMorphology radius="2.87771" operator="dilate" in="SourceAlpha" result="effect2_innerShadow_1913_49892"/>
<feOffset dx="0.959236" dy="7.67389"/>
<feGaussianBlur stdDeviation="1.91847"/>
<feComposite in2="hardAlpha" operator="arithmetic" k2="-1" k3="1"/>
<feColorMatrix type="matrix" values="0 0 0 0 1 0 0 0 0 1 0 0 0 0 1 0 0 0 0.25 0"/>
<feBlend mode="normal" in2="shape" result="effect2_innerShadow_1913_49892"/>
<feGaussianBlur stdDeviation="0.52758" result="effect3_foregroundBlur_1913_49892"/>
</filter>
<filter id="filter5_f_1913_49892" x="386.467" y="281.947" width="80.9593" height="80.9595" filterUnits="userSpaceOnUse" color-interpolation-filters="sRGB">
<feFlood flood-opacity="0" result="BackgroundImageFix"/>
<feBlend mode="normal" in="SourceGraphic" in2="BackgroundImageFix" result="shape"/>
<feGaussianBlur stdDeviation="13.5252" result="effect1_foregroundBlur_1913_49892"/>
</filter>
<filter id="filter7_f_1913_49892" x="476.445" y="502.388" width="80.9603" height="80.9595" filterUnits="userSpaceOnUse" color-interpolation-filters="sRGB">
<feFlood flood-opacity="0" result="BackgroundImageFix"/>
<feBlend mode="normal" in="SourceGraphic" in2="BackgroundImageFix" result="shape"/>
<feGaussianBlur stdDeviation="13.5252" result="effect1_foregroundBlur_1913_49892"/>
</filter>
<filter id="filter8_dif_1913_49892" x="490.831" y="75.8938" width="52.1822" height="52.1822" filterUnits="userSpaceOnUse" color-interpolation-filters="sRGB">
<feFlood flood-opacity="0" result="BackgroundImageFix"/>
<feColorMatrix in="SourceAlpha" type="matrix" values="0 0 0 0 0 0 0 0 0 0 0 0 0 0 0 0 0 0 127 0" result="hardAlpha"/>
<feOffset/>
<feGaussianBlur stdDeviation="6.33096"/>
<feComposite in2="hardAlpha" operator="out"/>
<feColorMatrix type="matrix" values="0 0 0 0 1 0 0 0 0 0.670588 0 0 0 0 0.211765 0 0 0 1 0"/>
<feBlend mode="normal" in2="BackgroundImageFix" result="effect1_dropShadow_1913_49892"/>
<feBlend mode="normal" in="SourceGraphic" in2="effect1_dropShadow_1913_49892" result="shape"/>
<feColorMatrix in="SourceAlpha" type="matrix" values="0 0 0 0 0 0 0 0 0 0 0 0 0 0 0 0 0 0 127 0" result="hardAlpha"/>
<feMorphology radius="2.87771" operator="dilate" in="SourceAlpha" result="effect2_innerShadow_1913_49892"/>
<feOffset dx="0.959236" dy="7.67389"/>
<feGaussianBlur stdDeviation="1.91847"/>
<feComposite in2="hardAlpha" operator="arithmetic" k2="-1" k3="1"/>
<feColorMatrix type="matrix" values="0 0 0 0 1 0 0 0 0 1 0 0 0 0 1 0 0 0 0.25 0"/>
<feBlend mode="normal" in2="shape" result="effect2_innerShadow_1913_49892"/>
<feGaussianBlur stdDeviation="0.52758" result="effect3_foregroundBlur_1913_49892"/>
</filter>
<filter id="filter9_f_1913_49892" x="476.443" y="61.5052" width="80.9593" height="80.9593" filterUnits="userSpaceOnUse" color-interpolation-filters="sRGB">
<feFlood flood-opacity="0" result="BackgroundImageFix"/>
<feBlend mode="normal" in="SourceGraphic" in2="BackgroundImageFix" result="shape"/>
<feGaussianBlur stdDeviation="13.5252" result="effect1_foregroundBlur_1913_49892"/>
</filter>
<filter id="filter10_d_1913_49892" x="671.709" y="260.076" width="130.456" height="130.456" filterUnits="userSpaceOnUse" color-interpolation-filters="sRGB">
<feFlood flood-opacity="0" result="BackgroundImageFix"/>
<feColorMatrix in="SourceAlpha" type="matrix" values="0 0 0 0 0 0 0 0 0 0 0 0 0 0 0 0 0 0 127 0" result="hardAlpha"/>
<feOffset dy="3.83694"/>
<feGaussianBlur stdDeviation="10.072"/>
<feComposite in2="hardAlpha" operator="out"/>
<feColorMatrix type="matrix" values="0 0 0 0 0 0 0 0 0 0 0 0 0 0 0 0 0 0 0.5 0"/>
<feBlend mode="normal" in2="BackgroundImageFix" result="effect1_dropShadow_1913_49892"/>
<feBlend mode="normal" in="SourceGraphic" in2="effect1_dropShadow_1913_49892" result="shape"/>
</filter>
<linearGradient id="paint0_linear_1913_49892" x1="1119.07" y1="649.824" x2="1660.01" y2="649.824" gradientUnits="userSpaceOnUse">
<stop stop-color="#2150AF"/>
<stop offset="1" stop-color="#2150AF" stop-opacity="0"/>
</linearGradient>
<linearGradient id="paint1_linear_1913_49892" x1="732.497" y1="76.8635" x2="731.961" y2="13.554" gradientUnits="userSpaceOnUse">
<stop stop-color="white"/>
<stop offset="1" stop-color="white" stop-opacity="0"/>
</linearGradient>
<linearGradient id="paint2_diamond_1913_49892" x1="0" y1="0" x2="500" y2="500" gradientUnits="userSpaceOnUse">
<stop stop-color="#3579E0"/>
<stop offset="1" stop-color="#21468B"/>
</linearGradient>
<radialGradient id="paint3_radial_1913_49892" cx="0" cy="0" r="1" gradientUnits="userSpaceOnUse" gradientTransform="translate(736.937 317.63) rotate(90) scale(48.921)">
<stop stop-color="#3579E0"/>
<stop offset="1" stop-color="#21468B"/>
</radialGradient>
<linearGradient id="paint4_linear_1913_49892" x1="-2.80762" y1="271.558" x2="507.192" y2="271.558" gradientUnits="userSpaceOnUse">
<stop stop-color="#132C5E"/>
<stop offset="1" stop-color="#132C5E" stop-opacity="0"/>
</linearGradient>
<linearGradient id="paint5_linear_1913_49892" x1="26.6815" y1="972.701" x2="199.849" y2="972.701" gradientUnits="userSpaceOnUse">
<stop offset="0.134615" stop-color="#132C5E"/>
<stop offset="1" stop-color="#132C5E" stop-opacity="0"/>
</linearGradient>
<clipPath id="clip0_1913_49892">
<rect width="848.192" height="513.116" fill="white"/>
</clipPath>
</defs>
</svg>
